<svg width="650" height="333" viewBox="0 0 650 333" fill="none" xmlns="http://www.w3.org/2000/svg">
<path d="M323.101 104C322.777 102.21 321.345 101.153 319.59 101.153C317.357 101.153 315.737 102.875 315.737 105.636C315.737 108.398 317.357 110.119 319.59 110.119C321.345 110.119 322.777 109.062 323.101 107.273H322.044C321.789 108.483 320.749 109.131 319.59 109.131C318.004 109.131 316.76 107.903 316.76 105.636C316.76 103.369 318.004 102.142 319.59 102.142C320.749 102.142 321.789 102.79 322.044 104H323.101ZM326.599 110.153C327.741 110.153 328.337 109.54 328.542 109.114H328.593V110H329.599V105.688C329.599 103.608 328.013 103.369 327.178 103.369C326.189 103.369 325.064 103.71 324.553 104.903L325.508 105.244C325.729 104.767 326.253 104.256 327.212 104.256C328.137 104.256 328.593 104.746 328.593 105.585V105.619C328.593 106.105 328.099 106.062 326.905 106.216C325.691 106.374 324.366 106.642 324.366 108.142C324.366 109.42 325.354 110.153 326.599 110.153ZM326.752 109.25C325.951 109.25 325.371 108.892 325.371 108.193C325.371 107.426 326.07 107.188 326.854 107.085C327.28 107.034 328.422 106.915 328.593 106.71V107.631C328.593 108.449 327.945 109.25 326.752 109.25ZM331.434 110H332.44V105.858C332.44 104.972 333.139 104.324 334.093 104.324C334.362 104.324 334.639 104.375 334.707 104.392V103.369C334.592 103.361 334.328 103.352 334.178 103.352C333.394 103.352 332.713 103.795 332.474 104.443H332.406V103.455H331.434V110Z" fill="white"/>
<path d="M168.379 264H173.714V263.062H169.436V260.097H173.373V259.159H169.436V256.21H173.646V255.273H168.379V264ZM176.42 260.062C176.42 258.92 177.128 258.273 178.091 258.273C179.024 258.273 179.591 258.882 179.591 259.909V264H180.596V259.841C180.596 258.17 179.706 257.369 178.381 257.369C177.392 257.369 176.778 257.812 176.471 258.477H176.386V257.455H175.415V264H176.42V260.062ZM185.076 266.591C186.644 266.591 187.906 265.875 187.906 264.188V257.455H186.934V258.494H186.832C186.61 258.153 186.201 257.369 184.923 257.369C183.269 257.369 182.127 258.682 182.127 260.693C182.127 262.739 183.32 263.898 184.906 263.898C186.184 263.898 186.593 263.148 186.815 262.79H186.9V264.119C186.9 265.21 186.133 265.705 185.076 265.705C183.887 265.705 183.47 265.078 183.201 264.716L182.4 265.278C182.809 265.964 183.615 266.591 185.076 266.591ZM185.042 262.994C183.781 262.994 183.133 262.04 183.133 260.676C183.133 259.347 183.764 258.273 185.042 258.273C186.269 258.273 186.917 259.261 186.917 260.676C186.917 262.125 186.252 262.994 185.042 262.994ZM189.747 264H190.752V257.455H189.747V264ZM190.258 256.364C190.65 256.364 190.974 256.057 190.974 255.682C190.974 255.307 190.65 255 190.258 255C189.866 255 189.542 255.307 189.542 255.682C189.542 256.057 189.866 256.364 190.258 256.364ZM193.6 260.062C193.6 258.92 194.307 258.273 195.27 258.273C196.204 258.273 196.77 258.882 196.77 259.909V264H197.776V259.841C197.776 258.17 196.885 257.369 195.56 257.369C194.572 257.369 193.958 257.812 193.651 258.477H193.566V257.455H192.594V264H193.6V260.062ZM202.358 264.136C203.688 264.136 204.659 263.472 204.966 262.483L203.994 262.21C203.739 262.892 203.146 263.233 202.358 263.233C201.178 263.233 200.364 262.47 200.317 261.068H205.068V260.642C205.068 258.205 203.619 257.369 202.256 257.369C200.483 257.369 199.307 258.767 199.307 260.778C199.307 262.79 200.466 264.136 202.358 264.136ZM200.317 260.199C200.385 259.18 201.105 258.273 202.256 258.273C203.347 258.273 204.046 259.091 204.046 260.199H200.317Z" fill="white"/>
<path d="M314.874 257.455H315.897C315.85 256.138 314.636 255.153 312.948 255.153C311.278 255.153 309.965 256.125 309.965 257.591C309.965 258.767 310.818 259.466 312.181 259.858L313.255 260.165C314.176 260.42 314.994 260.744 314.994 261.614C314.994 262.568 314.073 263.199 312.863 263.199C311.823 263.199 310.903 262.739 310.818 261.75H309.727C309.829 263.182 310.988 264.153 312.863 264.153C314.874 264.153 316.017 263.045 316.017 261.631C316.017 259.994 314.465 259.466 313.562 259.227L312.676 258.989C312.028 258.818 310.988 258.477 310.988 257.54C310.988 256.705 311.755 256.091 312.914 256.091C313.971 256.091 314.772 256.594 314.874 257.455ZM320.362 264.136C321.692 264.136 322.663 263.472 322.97 262.483L321.998 262.21C321.743 262.892 321.15 263.233 320.362 263.233C319.182 263.233 318.368 262.47 318.321 261.068H323.072V260.642C323.072 258.205 321.623 257.369 320.26 257.369C318.487 257.369 317.311 258.767 317.311 260.778C317.311 262.79 318.47 264.136 320.362 264.136ZM318.321 260.199C318.389 259.18 319.109 258.273 320.26 258.273C321.351 258.273 322.05 259.091 322.05 260.199H318.321ZM326.528 264.153C327.67 264.153 328.267 263.54 328.471 263.114H328.523V264H329.528V259.688C329.528 257.608 327.943 257.369 327.108 257.369C326.119 257.369 324.994 257.71 324.483 258.903L325.437 259.244C325.659 258.767 326.183 258.256 327.142 258.256C328.067 258.256 328.523 258.746 328.523 259.585V259.619C328.523 260.105 328.028 260.062 326.835 260.216C325.621 260.374 324.295 260.642 324.295 262.142C324.295 263.42 325.284 264.153 326.528 264.153ZM326.682 263.25C325.881 263.25 325.301 262.892 325.301 262.193C325.301 261.426 326 261.188 326.784 261.085C327.21 261.034 328.352 260.915 328.523 260.71V261.631C328.523 262.449 327.875 263.25 326.682 263.25ZM334.21 257.455H332.813V255.886H331.807V257.455H330.818V258.307H331.807V262.398C331.807 263.54 332.727 264.085 333.58 264.085C333.955 264.085 334.193 264.017 334.33 263.966L334.125 263.062C334.04 263.08 333.904 263.114 333.682 263.114C333.239 263.114 332.813 262.977 332.813 262.125V258.307H334.21V257.455ZM340.242 258.92C339.927 257.991 339.22 257.369 337.924 257.369C336.544 257.369 335.521 258.153 335.521 259.261C335.521 260.165 336.058 260.77 337.259 261.051L338.35 261.307C339.011 261.46 339.322 261.776 339.322 262.227C339.322 262.79 338.725 263.25 337.788 263.25C336.965 263.25 336.45 262.896 336.271 262.193L335.316 262.432C335.551 263.544 336.467 264.136 337.805 264.136C339.326 264.136 340.362 263.305 340.362 262.176C340.362 261.264 339.791 260.689 338.623 260.403L337.651 260.165C336.876 259.973 336.526 259.713 336.526 259.21C336.526 258.648 337.123 258.239 337.924 258.239C338.802 258.239 339.164 258.724 339.339 259.176L340.242 258.92Z" fill="white"/>
<path d="M455.674 255.273L458.827 260.403V264H459.884V260.403L463.038 255.273H461.827L459.407 259.347H459.305L456.884 255.273H455.674ZM466.087 264.136C467.416 264.136 468.388 263.472 468.695 262.483L467.723 262.21C467.467 262.892 466.875 263.233 466.087 263.233C464.906 263.233 464.092 262.47 464.045 261.068H468.797V260.642C468.797 258.205 467.348 257.369 465.984 257.369C464.212 257.369 463.036 258.767 463.036 260.778C463.036 262.79 464.195 264.136 466.087 264.136ZM464.045 260.199C464.114 259.18 464.834 258.273 465.984 258.273C467.075 258.273 467.774 259.091 467.774 260.199H464.045ZM472.253 264.153C473.395 264.153 473.991 263.54 474.196 263.114H474.247V264H475.253V259.688C475.253 257.608 473.668 257.369 472.832 257.369C471.844 257.369 470.719 257.71 470.207 258.903L471.162 259.244C471.384 258.767 471.908 258.256 472.866 258.256C473.791 258.256 474.247 258.746 474.247 259.585V259.619C474.247 260.105 473.753 260.062 472.56 260.216C471.345 260.374 470.02 260.642 470.02 262.142C470.02 263.42 471.009 264.153 472.253 264.153ZM472.406 263.25C471.605 263.25 471.026 262.892 471.026 262.193C471.026 261.426 471.724 261.188 472.509 261.085C472.935 261.034 474.077 260.915 474.247 260.71V261.631C474.247 262.449 473.599 263.25 472.406 263.25ZM477.088 264H478.094V259.858C478.094 258.972 478.793 258.324 479.748 258.324C480.016 258.324 480.293 258.375 480.361 258.392V257.369C480.246 257.361 479.982 257.352 479.833 257.352C479.049 257.352 478.367 257.795 478.128 258.443H478.06V257.455H477.088V264Z" fill="white"/>
<path d="M324.293 176.707C324.683 177.098 325.317 177.098 325.707 176.707L332.071 170.343C332.462 169.953 332.462 169.319 332.071 168.929C331.681 168.538 331.047 168.538 330.657 168.929L325 174.586L319.343 168.929C318.953 168.538 318.319 168.538 317.929 168.929C317.538 169.319 317.538 169.953 317.929 170.343L324.293 176.707ZM324 154L324 176L326 176L326 154L324 154Z" fill="#B4DC96"/>
<path d="M185.293 176.707C185.683 177.098 186.317 177.098 186.707 176.707L193.071 170.343C193.462 169.953 193.462 169.319 193.071 168.929C192.681 168.538 192.047 168.538 191.657 168.929L186 174.586L180.343 168.929C179.953 168.538 179.319 168.538 178.929 168.929C178.538 169.319 178.538 169.953 178.929 170.343L185.293 176.707ZM185 154L185 176L187 176L187 154L185 154Z" fill="#B4DC96"/>
<path d="M466.293 176.707C466.683 177.098 467.317 177.098 467.707 176.707L474.071 170.343C474.462 169.953 474.462 169.319 474.071 168.929C473.681 168.538 473.047 168.538 472.657 168.929L467 174.586L461.343 168.929C460.953 168.538 460.319 168.538 459.929 168.929C459.538 169.319 459.538 169.953 459.929 170.343L466.293 176.707ZM466 154L466 176L468 176L468 154L466 154Z" fill="#B4DC96"/>
<line x1="467" y1="154" x2="186" y2="154" stroke="#B4DC96" stroke-width="2" stroke-linecap="round"/>
<line x1="325" y1="154" x2="325" y2="121" stroke="#B4DC96" stroke-width="2"/>
<path d="M185.946 198.494C181.926 194.474 175.906 193.654 171.066 196.014L178.326 203.274C179.106 204.054 179.106 205.314 178.326 206.094L175.146 209.274C174.366 210.074 173.106 210.074 172.326 209.274L165.066 202.014C162.726 206.874 163.546 212.854 167.566 216.874C171.286 220.594 176.726 221.574 181.346 219.834L197.266 235.754C199.326 237.814 202.646 237.814 204.686 235.754C206.746 233.694 206.746 230.374 204.686 228.334L188.846 212.474C190.686 207.794 189.726 202.274 185.946 198.494Z" fill="#5DAEE6"/>
<path fill-rule="evenodd" clip-rule="evenodd" d="M475 198V200H459V198C459 196.9 458.1 196 457 196C455.9 196 455 196.9 455 198V200H453C450.78 200 449.02 201.8 449.02 204L449 232C449 234.2 450.78 236 453 236H481C483.2 236 485 234.2 485 232V204C485 201.8 483.2 200 481 200H479V198C479 196.9 478.1 196 477 196C475.9 196 475 196.9 475 198ZM475 218H469C467.9 218 467 218.9 467 220V226C467 227.1 467.9 228 469 228H475C476.1 228 477 227.1 477 226V220C477 218.9 476.1 218 475 218ZM455 232H479C480.1 232 481 231.1 481 230V210H453V230C453 231.1 453.9 232 455 232Z" fill="#FFDA6E"/>
<path fill-rule="evenodd" clip-rule="evenodd" d="M339.667 43.6667C341.427 43.6667 342.92 44.7867 343.453 46.36L348.707 61.48C348.893 62.04 349 62.6533 349 63.24V82.3333C349 84.5467 347.187 86.3333 345 86.3333C342.787 86.3333 341 84.52 341 82.3333V81H309V82.3333C309 84.5467 307.213 86.3333 305 86.3333C302.787 86.3333 301 84.5467 301 82.3333V63.24C301 62.6267 301.107 62.04 301.293 61.48L306.547 46.36C307.107 44.7867 308.573 43.6667 310.333 43.6667H339.667ZM306.333 69C306.333 71.2133 308.12 73 310.333 73C312.547 73 314.333 71.2133 314.333 69C314.333 66.7867 312.547 65 310.333 65C308.12 65 306.333 66.7867 306.333 69ZM339.667 73C337.453 73 335.667 71.2133 335.667 69C335.667 66.7867 337.453 65 339.667 65C341.88 65 343.667 66.7867 343.667 69C343.667 71.2133 341.88 73 339.667 73ZM309.72 49.48L306.333 59.6667H343.667L340.28 49.48C339.907 48.4133 338.893 47.6667 337.747 47.6667H312.253C311.107 47.6667 310.093 48.4133 309.72 49.48Z" fill="#C774E8"/>
<path fill-rule="evenodd" clip-rule="evenodd" d="M315 222H335V206C335 203.8 333.2 202 331 202H319C316.8 202 315 203.8 315 206V222ZM307 216H309C310.1 216 311 216.9 311 218V220C311 221.1 310.1 222 309 222H307C305.9 222 305 221.1 305 220V218C305 216.9 305.9 216 307 216ZM343 216H341C339.9 216 339 216.9 339 218V220C339 221.1 339.9 222 341 222H343C344.1 222 345 221.1 345 220V218C345 216.9 344.1 216 343 216ZM315 235C315 236.66 313.66 238 312 238C310.34 238 309 236.66 309 235V230C309 227.8 310.8 226 313 226H337C339.2 226 341 227.8 341 230V235C341 236.66 339.66 238 338 238C336.34 238 335 236.66 335 235V232H315V235Z" fill="#E36A79"/>
</svg>
