<svg width="1920" height="1080" viewBox="0 0 1920 1080" fill="none" xmlns="http://www.w3.org/2000/svg">
<path d="M384.117 311.719H359.082V501.125H384.117V518.344H339.258V294.5H384.117V311.719Z" fill="#BDBDBD"/>
<path d="M704.84 478.129C704.84 481.678 704.387 485.379 703.48 489.23C702.65 493.158 701.366 497.009 699.629 500.785C697.967 504.637 695.928 508.299 693.512 511.773C691.095 515.247 688.301 518.344 685.129 521.062L672.102 513.926C675.727 508.639 678.294 503.013 679.805 497.047C681.315 491.081 682.07 484.888 682.07 478.469V458.191H704.84V478.129Z" fill="#BDBDBD"/>
<path d="M984.84 478.129C984.84 481.678 984.387 485.379 983.48 489.23C982.65 493.158 981.366 497.009 979.629 500.785C977.967 504.637 975.928 508.299 973.512 511.773C971.095 515.247 968.301 518.344 965.129 521.062L952.102 513.926C955.727 508.639 958.294 503.013 959.805 497.047C961.315 491.081 962.07 484.888 962.07 478.469V458.191H984.84V478.129Z" fill="#BDBDBD"/>
<path d="M1248.84 478.129C1248.84 481.678 1248.39 485.379 1247.48 489.23C1246.65 493.158 1245.37 497.009 1243.63 500.785C1241.97 504.637 1239.93 508.299 1237.51 511.773C1235.1 515.247 1232.3 518.344 1229.13 521.062L1216.1 513.926C1219.73 508.639 1222.29 503.013 1223.8 497.047C1225.32 491.081 1226.07 484.888 1226.07 478.469V458.191H1248.84V478.129Z" fill="#BDBDBD"/>
<path d="M1534.88 294.5H1579.85V518.344H1534.88V501.125H1560.03V311.719H1534.88V294.5Z" fill="#BDBDBD"/>
<rect x="549.095" y="315" width="126" height="126" rx="16" transform="rotate(45 549.095 315)" fill="#FFDA6E"/>
<path d="M549.095 354.409C549.095 347.282 557.713 343.713 562.752 348.752L612.439 398.439C615.563 401.563 615.563 406.628 612.439 409.752L562.752 459.439C557.713 464.478 549.095 460.909 549.095 453.782V354.409Z" fill="#FFB967"/>
<rect x="823.286" y="315" width="126" height="126" rx="16" transform="rotate(45 823.286 315)" fill="#FFDA6E"/>
<path d="M823.286 354.409C823.286 347.282 831.904 343.713 836.943 348.752L886.63 398.439C889.754 401.563 889.754 406.628 886.63 409.752L836.943 459.439C831.904 464.478 823.286 460.909 823.286 453.782V354.409Z" fill="#FFB967"/>
<rect x="1097.48" y="315" width="126" height="126" rx="16" transform="rotate(45 1097.48 315)" fill="#FFDA6E"/>
<path d="M1097.48 354.409C1097.48 347.282 1106.09 343.713 1111.13 348.752L1160.82 398.439C1163.94 401.563 1163.94 406.628 1160.82 409.752L1111.13 459.439C1106.09 464.478 1097.48 460.909 1097.48 453.782V354.409Z" fill="#FFB967"/>
<rect x="1371.67" y="315" width="126" height="126" rx="16" transform="rotate(45 1371.67 315)" fill="#FFDA6E"/>
<path d="M1371.67 354.409C1371.67 347.282 1380.29 343.713 1385.33 348.752L1435.01 398.439C1438.14 401.563 1438.14 406.628 1435.01 409.752L1385.33 459.439C1380.29 464.478 1371.67 460.909 1371.67 453.782V354.409Z" fill="#FFB967"/>
<path fill-rule="evenodd" clip-rule="evenodd" d="M606.608 574C602.548 574 598.64 572.456 595.676 569.682L559.933 536.232C553.781 530.475 544.219 530.475 538.067 536.232L502.324 569.682C499.36 572.456 495.452 574 491.392 574H380C371.163 574 364 581.163 364 590V922C364 930.837 371.163 938 380 938H718C726.837 938 734 930.837 734 922V590C734 581.163 726.837 574 718 574H606.608Z" fill="#21242B"/>
<path d="M423.672 642.164L420.484 645.234V654H416.125V618H420.484V640.031L423.32 636.984L431.641 628.641H436.914L426.648 639.211L438.484 654H432.977L423.672 642.164ZM456.109 654.469C454.328 654.469 452.688 654.164 451.188 653.555C449.703 652.945 448.43 652.094 447.367 651C446.305 649.906 445.477 648.609 444.883 647.109C444.289 645.609 443.992 643.977 443.992 642.211V641.227C443.992 639.18 444.32 637.352 444.977 635.742C445.633 634.117 446.5 632.75 447.578 631.641C448.672 630.516 449.906 629.656 451.281 629.062C452.672 628.469 454.094 628.172 455.547 628.172C457.375 628.172 458.969 628.492 460.328 629.133C461.703 629.758 462.844 630.633 463.75 631.758C464.656 632.867 465.328 634.18 465.766 635.695C466.219 637.211 466.445 638.852 466.445 640.617V642.562H448.328C448.375 643.719 448.594 644.805 448.984 645.82C449.391 646.836 449.938 647.727 450.625 648.492C451.328 649.242 452.164 649.836 453.133 650.273C454.102 650.711 455.172 650.93 456.344 650.93C457.891 650.93 459.266 650.617 460.469 649.992C461.672 649.367 462.672 648.539 463.469 647.508L466.117 649.57C465.695 650.211 465.164 650.828 464.523 651.422C463.898 652 463.172 652.516 462.344 652.969C461.516 653.422 460.578 653.781 459.531 654.047C458.484 654.328 457.344 654.469 456.109 654.469ZM455.547 631.734C454.672 631.734 453.844 631.898 453.062 632.227C452.281 632.539 451.578 633.008 450.953 633.633C450.328 634.242 449.797 635 449.359 635.906C448.938 636.797 448.641 637.828 448.469 639H462.109V638.672C462.062 637.828 461.898 636.992 461.617 636.164C461.352 635.336 460.953 634.594 460.422 633.938C459.891 633.281 459.219 632.75 458.406 632.344C457.609 631.938 456.656 631.734 455.547 631.734ZM483.062 645L484.188 648.07L491.922 628.641H496.773L483.906 657.914C483.609 658.57 483.227 659.266 482.758 660C482.305 660.734 481.75 661.414 481.094 662.039C480.438 662.664 479.672 663.188 478.797 663.609C477.922 664.031 476.914 664.242 475.773 664.242C475.57 664.242 475.344 664.227 475.094 664.195C474.844 664.18 474.594 664.148 474.344 664.102C474.094 664.07 473.859 664.031 473.641 663.984C473.422 663.938 473.242 663.898 473.102 663.867L473.805 660.328C473.914 660.328 474.062 660.336 474.25 660.352C474.438 660.367 474.633 660.383 474.836 660.398C475.039 660.414 475.234 660.422 475.422 660.422C475.609 660.438 475.758 660.445 475.867 660.445C476.461 660.445 477 660.281 477.484 659.953C477.984 659.625 478.422 659.234 478.797 658.781C479.188 658.328 479.516 657.859 479.781 657.375C480.062 656.891 480.281 656.492 480.438 656.18L482.172 652.805L471.25 628.641H476.102L483.062 645ZM525.578 623.578H515.031V654H510.812V623.578H500.266V619.875H525.578V623.578ZM532.07 628.641H545.031V650.25H553.305V654H532.07V650.25H540.695V632.414H532.07V628.641ZM540.133 621.984C540.133 621.266 540.344 620.664 540.766 620.18C541.203 619.68 541.859 619.43 542.734 619.43C543.594 619.43 544.242 619.68 544.68 620.18C545.117 620.664 545.336 621.266 545.336 621.984C545.336 622.688 545.117 623.273 544.68 623.742C544.242 624.211 543.594 624.445 542.734 624.445C541.859 624.445 541.203 624.211 540.766 623.742C540.344 623.273 540.133 622.688 540.133 621.984ZM562.211 628.641L562.328 631.031C562.844 630.141 563.516 629.445 564.344 628.945C565.188 628.445 566.203 628.188 567.391 628.172C569.719 628.172 571.273 629.078 572.055 630.891C572.555 630.078 573.211 629.43 574.023 628.945C574.852 628.445 575.852 628.188 577.023 628.172C578.883 628.172 580.312 628.742 581.312 629.883C582.312 631.023 582.812 632.75 582.812 635.062V654H578.688V635.016C578.688 632.891 577.711 631.836 575.758 631.852C575.242 631.852 574.797 631.922 574.422 632.062C574.047 632.203 573.734 632.398 573.484 632.648C573.234 632.883 573.039 633.164 572.898 633.492C572.758 633.805 572.664 634.133 572.617 634.477V654H568.492V634.992C568.492 633.977 568.266 633.195 567.812 632.648C567.359 632.102 566.641 631.836 565.656 631.852C564.75 631.852 564.047 632.031 563.547 632.391C563.047 632.75 562.68 633.227 562.445 633.82V654H558.32V628.641H562.211ZM600.25 654.469C598.469 654.469 596.828 654.164 595.328 653.555C593.844 652.945 592.57 652.094 591.508 651C590.445 649.906 589.617 648.609 589.023 647.109C588.43 645.609 588.133 643.977 588.133 642.211V641.227C588.133 639.18 588.461 637.352 589.117 635.742C589.773 634.117 590.641 632.75 591.719 631.641C592.812 630.516 594.047 629.656 595.422 629.062C596.812 628.469 598.234 628.172 599.688 628.172C601.516 628.172 603.109 628.492 604.469 629.133C605.844 629.758 606.984 630.633 607.891 631.758C608.797 632.867 609.469 634.18 609.906 635.695C610.359 637.211 610.586 638.852 610.586 640.617V642.562H592.469C592.516 643.719 592.734 644.805 593.125 645.82C593.531 646.836 594.078 647.727 594.766 648.492C595.469 649.242 596.305 649.836 597.273 650.273C598.242 650.711 599.312 650.93 600.484 650.93C602.031 650.93 603.406 650.617 604.609 649.992C605.812 649.367 606.812 648.539 607.609 647.508L610.258 649.57C609.836 650.211 609.305 650.828 608.664 651.422C608.039 652 607.312 652.516 606.484 652.969C605.656 653.422 604.719 653.781 603.672 654.047C602.625 654.328 601.484 654.469 600.25 654.469ZM599.688 631.734C598.812 631.734 597.984 631.898 597.203 632.227C596.422 632.539 595.719 633.008 595.094 633.633C594.469 634.242 593.938 635 593.5 635.906C593.078 636.797 592.781 637.828 592.609 639H606.25V638.672C606.203 637.828 606.039 636.992 605.758 636.164C605.492 635.336 605.094 634.594 604.562 633.938C604.031 633.281 603.359 632.75 602.547 632.344C601.75 631.938 600.797 631.734 599.688 631.734ZM628.867 652.992C628.867 653.727 628.773 654.492 628.586 655.289C628.414 656.102 628.148 656.898 627.789 657.68C627.445 658.477 627.023 659.234 626.523 659.953C626.023 660.672 625.445 661.312 624.789 661.875L622.094 660.398C622.844 659.305 623.375 658.141 623.688 656.906C624 655.672 624.156 654.391 624.156 653.062V648.867H628.867V652.992ZM423.672 700.164L420.484 703.234V712H416.125V676H420.484V698.031L423.32 694.984L431.641 686.641H436.914L426.648 697.211L438.484 712H432.977L423.672 700.164ZM456.109 712.469C454.328 712.469 452.688 712.164 451.188 711.555C449.703 710.945 448.43 710.094 447.367 709C446.305 707.906 445.477 706.609 444.883 705.109C444.289 703.609 443.992 701.977 443.992 700.211V699.227C443.992 697.18 444.32 695.352 444.977 693.742C445.633 692.117 446.5 690.75 447.578 689.641C448.672 688.516 449.906 687.656 451.281 687.062C452.672 686.469 454.094 686.172 455.547 686.172C457.375 686.172 458.969 686.492 460.328 687.133C461.703 687.758 462.844 688.633 463.75 689.758C464.656 690.867 465.328 692.18 465.766 693.695C466.219 695.211 466.445 696.852 466.445 698.617V700.562H448.328C448.375 701.719 448.594 702.805 448.984 703.82C449.391 704.836 449.938 705.727 450.625 706.492C451.328 707.242 452.164 707.836 453.133 708.273C454.102 708.711 455.172 708.93 456.344 708.93C457.891 708.93 459.266 708.617 460.469 707.992C461.672 707.367 462.672 706.539 463.469 705.508L466.117 707.57C465.695 708.211 465.164 708.828 464.523 709.422C463.898 710 463.172 710.516 462.344 710.969C461.516 711.422 460.578 711.781 459.531 712.047C458.484 712.328 457.344 712.469 456.109 712.469ZM455.547 689.734C454.672 689.734 453.844 689.898 453.062 690.227C452.281 690.539 451.578 691.008 450.953 691.633C450.328 692.242 449.797 693 449.359 693.906C448.938 694.797 448.641 695.828 448.469 697H462.109V696.672C462.062 695.828 461.898 694.992 461.617 694.164C461.352 693.336 460.953 692.594 460.422 691.938C459.891 691.281 459.219 690.75 458.406 690.344C457.609 689.938 456.656 689.734 455.547 689.734ZM483.062 703L484.188 706.07L491.922 686.641H496.773L483.906 715.914C483.609 716.57 483.227 717.266 482.758 718C482.305 718.734 481.75 719.414 481.094 720.039C480.438 720.664 479.672 721.188 478.797 721.609C477.922 722.031 476.914 722.242 475.773 722.242C475.57 722.242 475.344 722.227 475.094 722.195C474.844 722.18 474.594 722.148 474.344 722.102C474.094 722.07 473.859 722.031 473.641 721.984C473.422 721.938 473.242 721.898 473.102 721.867L473.805 718.328C473.914 718.328 474.062 718.336 474.25 718.352C474.438 718.367 474.633 718.383 474.836 718.398C475.039 718.414 475.234 718.422 475.422 718.422C475.609 718.438 475.758 718.445 475.867 718.445C476.461 718.445 477 718.281 477.484 717.953C477.984 717.625 478.422 717.234 478.797 716.781C479.188 716.328 479.516 715.859 479.781 715.375C480.062 714.891 480.281 714.492 480.438 714.18L482.172 710.805L471.25 686.641H476.102L483.062 703ZM512.781 705.016L520.844 677.875H525.461L514.703 712H510.93L500.148 677.875H504.789L512.781 705.016ZM548.055 712C547.883 711.672 547.742 711.266 547.633 710.781C547.539 710.281 547.469 709.766 547.422 709.234C546.984 709.672 546.492 710.086 545.945 710.477C545.414 710.867 544.82 711.211 544.164 711.508C543.523 711.805 542.836 712.039 542.102 712.211C541.367 712.383 540.586 712.469 539.758 712.469C538.414 712.469 537.195 712.273 536.102 711.883C535.023 711.492 534.102 710.969 533.336 710.312C532.586 709.641 532 708.852 531.578 707.945C531.172 707.023 530.969 706.031 530.969 704.969C530.969 703.578 531.242 702.359 531.789 701.312C532.352 700.266 533.141 699.398 534.156 698.711C535.172 698.008 536.391 697.484 537.812 697.141C539.25 696.797 540.852 696.625 542.617 696.625H547.352V694.633C547.352 693.867 547.211 693.18 546.93 692.57C546.648 691.961 546.25 691.445 545.734 691.023C545.219 690.586 544.586 690.25 543.836 690.016C543.102 689.781 542.273 689.664 541.352 689.664C540.492 689.664 539.719 689.773 539.031 689.992C538.359 690.211 537.789 690.5 537.32 690.859C536.852 691.219 536.484 691.648 536.219 692.148C535.969 692.633 535.844 693.141 535.844 693.672H531.484C531.5 692.75 531.734 691.844 532.188 690.953C532.656 690.062 533.32 689.266 534.18 688.562C535.055 687.844 536.109 687.266 537.344 686.828C538.594 686.391 540.008 686.172 541.586 686.172C543.023 686.172 544.359 686.352 545.594 686.711C546.828 687.055 547.891 687.586 548.781 688.305C549.688 689.008 550.398 689.891 550.914 690.953C551.43 692.016 551.688 693.258 551.688 694.68V706.469C551.688 707.312 551.766 708.211 551.922 709.164C552.078 710.102 552.297 710.922 552.578 711.625V712H548.055ZM540.391 708.695C541.234 708.695 542.023 708.586 542.758 708.367C543.492 708.148 544.156 707.859 544.75 707.5C545.359 707.141 545.883 706.734 546.32 706.281C546.758 705.812 547.102 705.328 547.352 704.828V699.695H543.32C540.789 699.695 538.82 700.07 537.414 700.82C536.008 701.57 535.305 702.75 535.305 704.359C535.305 704.984 535.406 705.562 535.609 706.094C535.828 706.625 536.148 707.086 536.57 707.477C536.992 707.852 537.523 708.148 538.164 708.367C538.805 708.586 539.547 708.695 540.391 708.695ZM560.898 676H573.859V708.25H582.133V712H560.898V708.25H569.523V679.773H560.898V676ZM605.5 708.508C604.656 709.758 603.602 710.734 602.336 711.438C601.07 712.125 599.609 712.469 597.953 712.469C596.625 712.469 595.422 712.266 594.344 711.859C593.266 711.438 592.344 710.789 591.578 709.914C590.812 709.039 590.219 707.93 589.797 706.586C589.391 705.227 589.188 703.602 589.188 701.711V686.641H593.523V701.758C593.523 703.133 593.633 704.273 593.852 705.18C594.07 706.086 594.398 706.812 594.836 707.359C595.273 707.891 595.805 708.266 596.43 708.484C597.07 708.703 597.805 708.812 598.633 708.812C600.398 708.812 601.82 708.453 602.898 707.734C603.992 707.016 604.805 706.047 605.336 704.828V686.641H609.695V712H605.758L605.5 708.508ZM629.078 712.469C627.297 712.469 625.656 712.164 624.156 711.555C622.672 710.945 621.398 710.094 620.336 709C619.273 707.906 618.445 706.609 617.852 705.109C617.258 703.609 616.961 701.977 616.961 700.211V699.227C616.961 697.18 617.289 695.352 617.945 693.742C618.602 692.117 619.469 690.75 620.547 689.641C621.641 688.516 622.875 687.656 624.25 687.062C625.641 686.469 627.062 686.172 628.516 686.172C630.344 686.172 631.938 686.492 633.297 687.133C634.672 687.758 635.812 688.633 636.719 689.758C637.625 690.867 638.297 692.18 638.734 693.695C639.188 695.211 639.414 696.852 639.414 698.617V700.562H621.297C621.344 701.719 621.562 702.805 621.953 703.82C622.359 704.836 622.906 705.727 623.594 706.492C624.297 707.242 625.133 707.836 626.102 708.273C627.07 708.711 628.141 708.93 629.312 708.93C630.859 708.93 632.234 708.617 633.438 707.992C634.641 707.367 635.641 706.539 636.438 705.508L639.086 707.57C638.664 708.211 638.133 708.828 637.492 709.422C636.867 710 636.141 710.516 635.312 710.969C634.484 711.422 633.547 711.781 632.5 712.047C631.453 712.328 630.312 712.469 629.078 712.469ZM628.516 689.734C627.641 689.734 626.812 689.898 626.031 690.227C625.25 690.539 624.547 691.008 623.922 691.633C623.297 692.242 622.766 693 622.328 693.906C621.906 694.797 621.609 695.828 621.438 697H635.078V696.672C635.031 695.828 634.867 694.992 634.586 694.164C634.32 693.336 633.922 692.594 633.391 691.938C632.859 691.281 632.188 690.75 631.375 690.344C630.578 689.938 629.625 689.734 628.516 689.734ZM657.695 710.992C657.695 711.727 657.602 712.492 657.414 713.289C657.242 714.102 656.977 714.898 656.617 715.68C656.273 716.477 655.852 717.234 655.352 717.953C654.852 718.672 654.273 719.312 653.617 719.875L650.922 718.398C651.672 717.305 652.203 716.141 652.516 714.906C652.828 713.672 652.984 712.391 652.984 711.062V706.867H657.695V710.992ZM427.281 770.469C425.5 770.469 423.859 770.164 422.359 769.555C420.875 768.945 419.602 768.094 418.539 767C417.477 765.906 416.648 764.609 416.055 763.109C415.461 761.609 415.164 759.977 415.164 758.211V757.227C415.164 755.18 415.492 753.352 416.148 751.742C416.805 750.117 417.672 748.75 418.75 747.641C419.844 746.516 421.078 745.656 422.453 745.062C423.844 744.469 425.266 744.172 426.719 744.172C428.547 744.172 430.141 744.492 431.5 745.133C432.875 745.758 434.016 746.633 434.922 747.758C435.828 748.867 436.5 750.18 436.938 751.695C437.391 753.211 437.617 754.852 437.617 756.617V758.562H419.5C419.547 759.719 419.766 760.805 420.156 761.82C420.562 762.836 421.109 763.727 421.797 764.492C422.5 765.242 423.336 765.836 424.305 766.273C425.273 766.711 426.344 766.93 427.516 766.93C429.062 766.93 430.438 766.617 431.641 765.992C432.844 765.367 433.844 764.539 434.641 763.508L437.289 765.57C436.867 766.211 436.336 766.828 435.695 767.422C435.07 768 434.344 768.516 433.516 768.969C432.688 769.422 431.75 769.781 430.703 770.047C429.656 770.328 428.516 770.469 427.281 770.469ZM426.719 747.734C425.844 747.734 425.016 747.898 424.234 748.227C423.453 748.539 422.75 749.008 422.125 749.633C421.5 750.242 420.969 751 420.531 751.906C420.109 752.797 419.812 753.828 419.641 755H433.281V754.672C433.234 753.828 433.07 752.992 432.789 752.164C432.523 751.336 432.125 750.594 431.594 749.938C431.062 749.281 430.391 748.75 429.578 748.344C428.781 747.938 427.828 747.734 426.719 747.734ZM461.57 770C461.398 769.672 461.258 769.266 461.148 768.781C461.055 768.281 460.984 767.766 460.938 767.234C460.5 767.672 460.008 768.086 459.461 768.477C458.93 768.867 458.336 769.211 457.68 769.508C457.039 769.805 456.352 770.039 455.617 770.211C454.883 770.383 454.102 770.469 453.273 770.469C451.93 770.469 450.711 770.273 449.617 769.883C448.539 769.492 447.617 768.969 446.852 768.312C446.102 767.641 445.516 766.852 445.094 765.945C444.688 765.023 444.484 764.031 444.484 762.969C444.484 761.578 444.758 760.359 445.305 759.312C445.867 758.266 446.656 757.398 447.672 756.711C448.688 756.008 449.906 755.484 451.328 755.141C452.766 754.797 454.367 754.625 456.133 754.625H460.867V752.633C460.867 751.867 460.727 751.18 460.445 750.57C460.164 749.961 459.766 749.445 459.25 749.023C458.734 748.586 458.102 748.25 457.352 748.016C456.617 747.781 455.789 747.664 454.867 747.664C454.008 747.664 453.234 747.773 452.547 747.992C451.875 748.211 451.305 748.5 450.836 748.859C450.367 749.219 450 749.648 449.734 750.148C449.484 750.633 449.359 751.141 449.359 751.672H445C445.016 750.75 445.25 749.844 445.703 748.953C446.172 748.062 446.836 747.266 447.695 746.562C448.57 745.844 449.625 745.266 450.859 744.828C452.109 744.391 453.523 744.172 455.102 744.172C456.539 744.172 457.875 744.352 459.109 744.711C460.344 745.055 461.406 745.586 462.297 746.305C463.203 747.008 463.914 747.891 464.43 748.953C464.945 750.016 465.203 751.258 465.203 752.68V764.469C465.203 765.312 465.281 766.211 465.438 767.164C465.594 768.102 465.812 768.922 466.094 769.625V770H461.57ZM453.906 766.695C454.75 766.695 455.539 766.586 456.273 766.367C457.008 766.148 457.672 765.859 458.266 765.5C458.875 765.141 459.398 764.734 459.836 764.281C460.273 763.812 460.617 763.328 460.867 762.828V757.695H456.836C454.305 757.695 452.336 758.07 450.93 758.82C449.523 759.57 448.82 760.75 448.82 762.359C448.82 762.984 448.922 763.562 449.125 764.094C449.344 764.625 449.664 765.086 450.086 765.477C450.508 765.852 451.039 766.148 451.68 766.367C452.32 766.586 453.062 766.695 453.906 766.695ZM490.586 763.273C490.586 762.758 490.484 762.297 490.281 761.891C490.078 761.469 489.734 761.086 489.25 760.742C488.766 760.398 488.125 760.086 487.328 759.805C486.531 759.508 485.539 759.242 484.352 759.008C482.898 758.711 481.57 758.352 480.367 757.93C479.18 757.508 478.156 757.008 477.297 756.43C476.453 755.836 475.797 755.148 475.328 754.367C474.859 753.57 474.625 752.648 474.625 751.602C474.625 750.57 474.867 749.609 475.352 748.719C475.836 747.812 476.516 747.023 477.391 746.352C478.266 745.68 479.305 745.148 480.508 744.758C481.727 744.367 483.062 744.172 484.516 744.172C486.078 744.172 487.484 744.375 488.734 744.781C489.984 745.188 491.047 745.75 491.922 746.469C492.797 747.188 493.469 748.031 493.938 749C494.422 749.953 494.664 750.984 494.664 752.094H490.328C490.328 751.547 490.188 751.016 489.906 750.5C489.625 749.969 489.234 749.5 488.734 749.094C488.234 748.688 487.625 748.359 486.906 748.109C486.203 747.859 485.406 747.734 484.516 747.734C483.594 747.734 482.781 747.836 482.078 748.039C481.391 748.242 480.812 748.516 480.344 748.859C479.891 749.203 479.547 749.602 479.312 750.055C479.078 750.508 478.961 750.977 478.961 751.461C478.961 751.961 479.055 752.406 479.242 752.797C479.43 753.188 479.75 753.539 480.203 753.852C480.672 754.164 481.289 754.445 482.055 754.695C482.836 754.945 483.82 755.188 485.008 755.422C486.57 755.75 487.969 756.133 489.203 756.57C490.438 756.992 491.477 757.508 492.32 758.117C493.164 758.711 493.805 759.406 494.242 760.203C494.695 761 494.922 761.922 494.922 762.969C494.922 764.094 494.664 765.117 494.148 766.039C493.648 766.961 492.945 767.75 492.039 768.406C491.133 769.062 490.047 769.57 488.781 769.93C487.516 770.289 486.133 770.469 484.633 770.469C482.914 770.469 481.383 770.242 480.039 769.789C478.695 769.32 477.555 768.711 476.617 767.961C475.695 767.195 474.984 766.312 474.484 765.312C474 764.312 473.758 763.273 473.758 762.195H478.094C478.156 763.086 478.391 763.836 478.797 764.445C479.219 765.055 479.734 765.547 480.344 765.922C480.969 766.297 481.656 766.562 482.406 766.719C483.156 766.875 483.898 766.953 484.633 766.953C486.461 766.953 487.906 766.617 488.969 765.945C490.031 765.273 490.57 764.383 490.586 763.273ZM513.766 770.469C511.984 770.469 510.344 770.164 508.844 769.555C507.359 768.945 506.086 768.094 505.023 767C503.961 765.906 503.133 764.609 502.539 763.109C501.945 761.609 501.648 759.977 501.648 758.211V757.227C501.648 755.18 501.977 753.352 502.633 751.742C503.289 750.117 504.156 748.75 505.234 747.641C506.328 746.516 507.562 745.656 508.938 745.062C510.328 744.469 511.75 744.172 513.203 744.172C515.031 744.172 516.625 744.492 517.984 745.133C519.359 745.758 520.5 746.633 521.406 747.758C522.312 748.867 522.984 750.18 523.422 751.695C523.875 753.211 524.102 754.852 524.102 756.617V758.562H505.984C506.031 759.719 506.25 760.805 506.641 761.82C507.047 762.836 507.594 763.727 508.281 764.492C508.984 765.242 509.82 765.836 510.789 766.273C511.758 766.711 512.828 766.93 514 766.93C515.547 766.93 516.922 766.617 518.125 765.992C519.328 765.367 520.328 764.539 521.125 763.508L523.773 765.57C523.352 766.211 522.82 766.828 522.18 767.422C521.555 768 520.828 768.516 520 768.969C519.172 769.422 518.234 769.781 517.188 770.047C516.141 770.328 515 770.469 513.766 770.469ZM513.203 747.734C512.328 747.734 511.5 747.898 510.719 748.227C509.938 748.539 509.234 749.008 508.609 749.633C507.984 750.242 507.453 751 507.016 751.906C506.594 752.797 506.297 753.828 506.125 755H519.766V754.672C519.719 753.828 519.555 752.992 519.273 752.164C519.008 751.336 518.609 750.594 518.078 749.938C517.547 749.281 516.875 748.75 516.062 748.344C515.266 747.938 514.312 747.734 513.203 747.734ZM531.391 735.875H552.016V739.648H543.836V766.25H552.016V770H531.391V766.25H539.383V739.648H531.391V735.875ZM564.109 744.641L564.414 748.391C565.336 747.078 566.469 746.055 567.812 745.32C569.156 744.57 570.656 744.188 572.312 744.172C573.641 744.172 574.844 744.359 575.922 744.734C577.016 745.109 577.945 745.695 578.711 746.492C579.477 747.289 580.062 748.305 580.469 749.539C580.891 750.758 581.102 752.211 581.102 753.898V770H576.766V753.992C576.766 752.867 576.641 751.914 576.391 751.133C576.141 750.352 575.766 749.719 575.266 749.234C574.781 748.75 574.18 748.398 573.461 748.18C572.758 747.961 571.945 747.852 571.023 747.852C569.57 747.852 568.289 748.219 567.18 748.953C566.086 749.672 565.211 750.625 564.555 751.812V770H560.219V744.641H564.109ZM600.039 768.992C600.039 769.727 599.945 770.492 599.758 771.289C599.586 772.102 599.32 772.898 598.961 773.68C598.617 774.477 598.195 775.234 597.695 775.953C597.195 776.672 596.617 777.312 595.961 777.875L593.266 776.398C594.016 775.305 594.547 774.141 594.859 772.906C595.172 771.672 595.328 770.391 595.328 769.062V764.867H600.039V768.992ZM427.281 828.469C425.5 828.469 423.859 828.164 422.359 827.555C420.875 826.945 419.602 826.094 418.539 825C417.477 823.906 416.648 822.609 416.055 821.109C415.461 819.609 415.164 817.977 415.164 816.211V815.227C415.164 813.18 415.492 811.352 416.148 809.742C416.805 808.117 417.672 806.75 418.75 805.641C419.844 804.516 421.078 803.656 422.453 803.062C423.844 802.469 425.266 802.172 426.719 802.172C428.547 802.172 430.141 802.492 431.5 803.133C432.875 803.758 434.016 804.633 434.922 805.758C435.828 806.867 436.5 808.18 436.938 809.695C437.391 811.211 437.617 812.852 437.617 814.617V816.562H419.5C419.547 817.719 419.766 818.805 420.156 819.82C420.562 820.836 421.109 821.727 421.797 822.492C422.5 823.242 423.336 823.836 424.305 824.273C425.273 824.711 426.344 824.93 427.516 824.93C429.062 824.93 430.438 824.617 431.641 823.992C432.844 823.367 433.844 822.539 434.641 821.508L437.289 823.57C436.867 824.211 436.336 824.828 435.695 825.422C435.07 826 434.344 826.516 433.516 826.969C432.688 827.422 431.75 827.781 430.703 828.047C429.656 828.328 428.516 828.469 427.281 828.469ZM426.719 805.734C425.844 805.734 425.016 805.898 424.234 806.227C423.453 806.539 422.75 807.008 422.125 807.633C421.5 808.242 420.969 809 420.531 809.906C420.109 810.797 419.812 811.828 419.641 813H433.281V812.672C433.234 811.828 433.07 810.992 432.789 810.164C432.523 809.336 432.125 808.594 431.594 807.938C431.062 807.281 430.391 806.75 429.578 806.344C428.781 805.938 427.828 805.734 426.719 805.734ZM461.57 828C461.398 827.672 461.258 827.266 461.148 826.781C461.055 826.281 460.984 825.766 460.938 825.234C460.5 825.672 460.008 826.086 459.461 826.477C458.93 826.867 458.336 827.211 457.68 827.508C457.039 827.805 456.352 828.039 455.617 828.211C454.883 828.383 454.102 828.469 453.273 828.469C451.93 828.469 450.711 828.273 449.617 827.883C448.539 827.492 447.617 826.969 446.852 826.312C446.102 825.641 445.516 824.852 445.094 823.945C444.688 823.023 444.484 822.031 444.484 820.969C444.484 819.578 444.758 818.359 445.305 817.312C445.867 816.266 446.656 815.398 447.672 814.711C448.688 814.008 449.906 813.484 451.328 813.141C452.766 812.797 454.367 812.625 456.133 812.625H460.867V810.633C460.867 809.867 460.727 809.18 460.445 808.57C460.164 807.961 459.766 807.445 459.25 807.023C458.734 806.586 458.102 806.25 457.352 806.016C456.617 805.781 455.789 805.664 454.867 805.664C454.008 805.664 453.234 805.773 452.547 805.992C451.875 806.211 451.305 806.5 450.836 806.859C450.367 807.219 450 807.648 449.734 808.148C449.484 808.633 449.359 809.141 449.359 809.672H445C445.016 808.75 445.25 807.844 445.703 806.953C446.172 806.062 446.836 805.266 447.695 804.562C448.57 803.844 449.625 803.266 450.859 802.828C452.109 802.391 453.523 802.172 455.102 802.172C456.539 802.172 457.875 802.352 459.109 802.711C460.344 803.055 461.406 803.586 462.297 804.305C463.203 805.008 463.914 805.891 464.43 806.953C464.945 808.016 465.203 809.258 465.203 810.68V822.469C465.203 823.312 465.281 824.211 465.438 825.164C465.594 826.102 465.812 826.922 466.094 827.625V828H461.57ZM453.906 824.695C454.75 824.695 455.539 824.586 456.273 824.367C457.008 824.148 457.672 823.859 458.266 823.5C458.875 823.141 459.398 822.734 459.836 822.281C460.273 821.812 460.617 821.328 460.867 820.828V815.695H456.836C454.305 815.695 452.336 816.07 450.93 816.82C449.523 817.57 448.82 818.75 448.82 820.359C448.82 820.984 448.922 821.562 449.125 822.094C449.344 822.625 449.664 823.086 450.086 823.477C450.508 823.852 451.039 824.148 451.68 824.367C452.32 824.586 453.062 824.695 453.906 824.695ZM490.586 821.273C490.586 820.758 490.484 820.297 490.281 819.891C490.078 819.469 489.734 819.086 489.25 818.742C488.766 818.398 488.125 818.086 487.328 817.805C486.531 817.508 485.539 817.242 484.352 817.008C482.898 816.711 481.57 816.352 480.367 815.93C479.18 815.508 478.156 815.008 477.297 814.43C476.453 813.836 475.797 813.148 475.328 812.367C474.859 811.57 474.625 810.648 474.625 809.602C474.625 808.57 474.867 807.609 475.352 806.719C475.836 805.812 476.516 805.023 477.391 804.352C478.266 803.68 479.305 803.148 480.508 802.758C481.727 802.367 483.062 802.172 484.516 802.172C486.078 802.172 487.484 802.375 488.734 802.781C489.984 803.188 491.047 803.75 491.922 804.469C492.797 805.188 493.469 806.031 493.938 807C494.422 807.953 494.664 808.984 494.664 810.094H490.328C490.328 809.547 490.188 809.016 489.906 808.5C489.625 807.969 489.234 807.5 488.734 807.094C488.234 806.688 487.625 806.359 486.906 806.109C486.203 805.859 485.406 805.734 484.516 805.734C483.594 805.734 482.781 805.836 482.078 806.039C481.391 806.242 480.812 806.516 480.344 806.859C479.891 807.203 479.547 807.602 479.312 808.055C479.078 808.508 478.961 808.977 478.961 809.461C478.961 809.961 479.055 810.406 479.242 810.797C479.43 811.188 479.75 811.539 480.203 811.852C480.672 812.164 481.289 812.445 482.055 812.695C482.836 812.945 483.82 813.188 485.008 813.422C486.57 813.75 487.969 814.133 489.203 814.57C490.438 814.992 491.477 815.508 492.32 816.117C493.164 816.711 493.805 817.406 494.242 818.203C494.695 819 494.922 819.922 494.922 820.969C494.922 822.094 494.664 823.117 494.148 824.039C493.648 824.961 492.945 825.75 492.039 826.406C491.133 827.062 490.047 827.57 488.781 827.93C487.516 828.289 486.133 828.469 484.633 828.469C482.914 828.469 481.383 828.242 480.039 827.789C478.695 827.32 477.555 826.711 476.617 825.961C475.695 825.195 474.984 824.312 474.484 823.312C474 822.312 473.758 821.273 473.758 820.195H478.094C478.156 821.086 478.391 821.836 478.797 822.445C479.219 823.055 479.734 823.547 480.344 823.922C480.969 824.297 481.656 824.562 482.406 824.719C483.156 824.875 483.898 824.953 484.633 824.953C486.461 824.953 487.906 824.617 488.969 823.945C490.031 823.273 490.57 822.383 490.586 821.273ZM513.766 828.469C511.984 828.469 510.344 828.164 508.844 827.555C507.359 826.945 506.086 826.094 505.023 825C503.961 823.906 503.133 822.609 502.539 821.109C501.945 819.609 501.648 817.977 501.648 816.211V815.227C501.648 813.18 501.977 811.352 502.633 809.742C503.289 808.117 504.156 806.75 505.234 805.641C506.328 804.516 507.562 803.656 508.938 803.062C510.328 802.469 511.75 802.172 513.203 802.172C515.031 802.172 516.625 802.492 517.984 803.133C519.359 803.758 520.5 804.633 521.406 805.758C522.312 806.867 522.984 808.18 523.422 809.695C523.875 811.211 524.102 812.852 524.102 814.617V816.562H505.984C506.031 817.719 506.25 818.805 506.641 819.82C507.047 820.836 507.594 821.727 508.281 822.492C508.984 823.242 509.82 823.836 510.789 824.273C511.758 824.711 512.828 824.93 514 824.93C515.547 824.93 516.922 824.617 518.125 823.992C519.328 823.367 520.328 822.539 521.125 821.508L523.773 823.57C523.352 824.211 522.82 824.828 522.18 825.422C521.555 826 520.828 826.516 520 826.969C519.172 827.422 518.234 827.781 517.188 828.047C516.141 828.328 515 828.469 513.766 828.469ZM513.203 805.734C512.328 805.734 511.5 805.898 510.719 806.227C509.938 806.539 509.234 807.008 508.609 807.633C507.984 808.242 507.453 809 507.016 809.906C506.594 810.797 506.297 811.828 506.125 813H519.766V812.672C519.719 811.828 519.555 810.992 519.273 810.164C519.008 809.336 518.609 808.594 518.078 807.938C517.547 807.281 516.875 806.75 516.062 806.344C515.266 805.938 514.312 805.734 513.203 805.734ZM553.586 812.906C553.57 814.125 553.461 815.359 553.258 816.609C553.07 817.844 552.773 819.039 552.367 820.195C551.961 821.352 551.438 822.43 550.797 823.43C550.172 824.43 549.422 825.305 548.547 826.055C547.672 826.805 546.664 827.398 545.523 827.836C544.398 828.258 543.133 828.469 541.727 828.469C540.32 828.469 539.047 828.258 537.906 827.836C536.781 827.398 535.781 826.805 534.906 826.055C534.031 825.305 533.273 824.43 532.633 823.43C531.992 822.414 531.461 821.328 531.039 820.172C530.633 819.016 530.328 817.82 530.125 816.586C529.922 815.352 529.812 814.125 529.797 812.906V809.016C529.812 807.797 529.914 806.57 530.102 805.336C530.305 804.086 530.609 802.883 531.016 801.727C531.438 800.57 531.961 799.492 532.586 798.492C533.227 797.477 533.984 796.594 534.859 795.844C535.734 795.078 536.734 794.484 537.859 794.062C539 793.625 540.273 793.406 541.68 793.406C543.086 793.406 544.359 793.625 545.5 794.062C546.641 794.484 547.648 795.07 548.523 795.82C549.398 796.57 550.148 797.453 550.773 798.469C551.414 799.469 551.938 800.547 552.344 801.703C552.766 802.859 553.07 804.062 553.258 805.312C553.461 806.562 553.57 807.797 553.586 809.016V812.906ZM549.297 808.969C549.281 808.156 549.227 807.312 549.133 806.438C549.039 805.547 548.875 804.672 548.641 803.812C548.422 802.938 548.125 802.109 547.75 801.328C547.375 800.531 546.906 799.836 546.344 799.242C545.781 798.633 545.117 798.156 544.352 797.812C543.586 797.453 542.695 797.273 541.68 797.273C540.68 797.273 539.797 797.453 539.031 797.812C538.266 798.172 537.602 798.656 537.039 799.266C536.477 799.859 536.008 800.555 535.633 801.352C535.258 802.133 534.953 802.961 534.719 803.836C534.5 804.695 534.336 805.57 534.227 806.461C534.133 807.336 534.078 808.172 534.062 808.969V812.906C534.078 813.703 534.133 814.547 534.227 815.438C534.336 816.328 534.508 817.211 534.742 818.086C534.977 818.945 535.281 819.773 535.656 820.57C536.031 821.367 536.5 822.07 537.062 822.68C537.625 823.273 538.289 823.75 539.055 824.109C539.82 824.469 540.711 824.648 541.727 824.648C542.742 824.648 543.633 824.469 544.398 824.109C545.18 823.75 545.844 823.273 546.391 822.68C546.953 822.07 547.414 821.375 547.773 820.594C548.148 819.797 548.445 818.969 548.664 818.109C548.898 817.234 549.055 816.352 549.133 815.461C549.227 814.57 549.281 813.719 549.297 812.906V808.969ZM576.672 824.508C575.828 825.758 574.773 826.734 573.508 827.438C572.242 828.125 570.781 828.469 569.125 828.469C567.797 828.469 566.594 828.266 565.516 827.859C564.438 827.438 563.516 826.789 562.75 825.914C561.984 825.039 561.391 823.93 560.969 822.586C560.562 821.227 560.359 819.602 560.359 817.711V802.641H564.695V817.758C564.695 819.133 564.805 820.273 565.023 821.18C565.242 822.086 565.57 822.812 566.008 823.359C566.445 823.891 566.977 824.266 567.602 824.484C568.242 824.703 568.977 824.812 569.805 824.812C571.57 824.812 572.992 824.453 574.07 823.734C575.164 823.016 575.977 822.047 576.508 820.828V802.641H580.867V828H576.93L576.672 824.508ZM599.312 796.5V802.641H608.969V805.992H599.312V819.773C599.312 820.758 599.438 821.57 599.688 822.211C599.938 822.852 600.281 823.367 600.719 823.758C601.156 824.133 601.656 824.398 602.219 824.555C602.797 824.711 603.406 824.789 604.047 824.789C604.516 824.789 605 824.766 605.5 824.719C606 824.656 606.484 824.586 606.953 824.508C607.438 824.43 607.883 824.352 608.289 824.273C608.711 824.18 609.055 824.102 609.32 824.039L609.93 827.109C609.57 827.328 609.133 827.523 608.617 827.695C608.102 827.852 607.539 827.984 606.93 828.094C606.32 828.219 605.672 828.312 604.984 828.375C604.312 828.438 603.641 828.469 602.969 828.469C601.844 828.469 600.789 828.312 599.805 828C598.836 827.672 597.992 827.164 597.273 826.477C596.555 825.773 595.984 824.875 595.562 823.781C595.156 822.672 594.953 821.336 594.953 819.773V805.992H588.297V802.641H594.953V796.5H599.312ZM628.867 826.992C628.867 827.727 628.773 828.492 628.586 829.289C628.414 830.102 628.148 830.898 627.789 831.68C627.445 832.477 627.023 833.234 626.523 833.953C626.023 834.672 625.445 835.312 624.789 835.875L622.094 834.398C622.844 833.305 623.375 832.141 623.688 830.906C624 829.672 624.156 828.391 624.156 827.062V822.867H628.867V826.992ZM423.625 883.188C423.625 882.719 423.695 882.281 423.836 881.875C423.992 881.469 424.211 881.117 424.492 880.82C424.773 880.508 425.125 880.266 425.547 880.094C425.969 879.922 426.461 879.836 427.023 879.836C427.586 879.836 428.078 879.922 428.5 880.094C428.938 880.266 429.297 880.508 429.578 880.82C429.875 881.117 430.094 881.469 430.234 881.875C430.391 882.281 430.469 882.719 430.469 883.188C430.469 883.641 430.391 884.07 430.234 884.477C430.094 884.867 429.875 885.211 429.578 885.508C429.297 885.805 428.938 886.031 428.5 886.188C428.078 886.359 427.586 886.445 427.023 886.445C426.461 886.445 425.969 886.359 425.547 886.188C425.125 886.031 424.773 885.805 424.492 885.508C424.211 885.211 423.992 884.867 423.836 884.477C423.695 884.07 423.625 883.641 423.625 883.188ZM452.453 883.188C452.453 882.719 452.523 882.281 452.664 881.875C452.82 881.469 453.039 881.117 453.32 880.82C453.602 880.508 453.953 880.266 454.375 880.094C454.797 879.922 455.289 879.836 455.852 879.836C456.414 879.836 456.906 879.922 457.328 880.094C457.766 880.266 458.125 880.508 458.406 880.82C458.703 881.117 458.922 881.469 459.062 881.875C459.219 882.281 459.297 882.719 459.297 883.188C459.297 883.641 459.219 884.07 459.062 884.477C458.922 884.867 458.703 885.211 458.406 885.508C458.125 885.805 457.766 886.031 457.328 886.188C456.906 886.359 456.414 886.445 455.852 886.445C455.289 886.445 454.797 886.359 454.375 886.188C453.953 886.031 453.602 885.805 453.32 885.508C453.039 885.211 452.82 884.867 452.664 884.477C452.523 884.07 452.453 883.641 452.453 883.188ZM481.281 883.188C481.281 882.719 481.352 882.281 481.492 881.875C481.648 881.469 481.867 881.117 482.148 880.82C482.43 880.508 482.781 880.266 483.203 880.094C483.625 879.922 484.117 879.836 484.68 879.836C485.242 879.836 485.734 879.922 486.156 880.094C486.594 880.266 486.953 880.508 487.234 880.82C487.531 881.117 487.75 881.469 487.891 881.875C488.047 882.281 488.125 882.719 488.125 883.188C488.125 883.641 488.047 884.07 487.891 884.477C487.75 884.867 487.531 885.211 487.234 885.508C486.953 885.805 486.594 886.031 486.156 886.188C485.734 886.359 485.242 886.445 484.68 886.445C484.117 886.445 483.625 886.359 483.203 886.188C482.781 886.031 482.43 885.805 482.148 885.508C481.867 885.211 481.648 884.867 481.492 884.477C481.352 884.07 481.281 883.641 481.281 883.188Z" fill="#E36A79"/>
<path d="M724.641 154.578H714.094V185H709.875V154.578H699.328V150.875H724.641V154.578ZM734.789 163.414C735.695 162.086 736.812 161.055 738.141 160.32C739.469 159.57 740.961 159.188 742.617 159.172C743.945 159.172 745.148 159.367 746.227 159.758C747.32 160.133 748.25 160.727 749.016 161.539C749.781 162.352 750.367 163.383 750.773 164.633C751.195 165.867 751.406 167.336 751.406 169.039V185H747.07V168.992C747.07 166.914 746.57 165.367 745.57 164.352C744.586 163.336 743.172 162.836 741.328 162.852C739.938 162.852 738.672 163.195 737.531 163.883C736.406 164.555 735.492 165.453 734.789 166.578V185H730.453V149H734.789V163.414ZM770.484 185.469C768.703 185.469 767.062 185.164 765.562 184.555C764.078 183.945 762.805 183.094 761.742 182C760.68 180.906 759.852 179.609 759.258 178.109C758.664 176.609 758.367 174.977 758.367 173.211V172.227C758.367 170.18 758.695 168.352 759.352 166.742C760.008 165.117 760.875 163.75 761.953 162.641C763.047 161.516 764.281 160.656 765.656 160.062C767.047 159.469 768.469 159.172 769.922 159.172C771.75 159.172 773.344 159.492 774.703 160.133C776.078 160.758 777.219 161.633 778.125 162.758C779.031 163.867 779.703 165.18 780.141 166.695C780.594 168.211 780.82 169.852 780.82 171.617V173.562H762.703C762.75 174.719 762.969 175.805 763.359 176.82C763.766 177.836 764.312 178.727 765 179.492C765.703 180.242 766.539 180.836 767.508 181.273C768.477 181.711 769.547 181.93 770.719 181.93C772.266 181.93 773.641 181.617 774.844 180.992C776.047 180.367 777.047 179.539 777.844 178.508L780.492 180.57C780.07 181.211 779.539 181.828 778.898 182.422C778.273 183 777.547 183.516 776.719 183.969C775.891 184.422 774.953 184.781 773.906 185.047C772.859 185.328 771.719 185.469 770.484 185.469ZM769.922 162.734C769.047 162.734 768.219 162.898 767.438 163.227C766.656 163.539 765.953 164.008 765.328 164.633C764.703 165.242 764.172 166 763.734 166.906C763.312 167.797 763.016 168.828 762.844 170H776.484V169.672C776.438 168.828 776.273 167.992 775.992 167.164C775.727 166.336 775.328 165.594 774.797 164.938C774.266 164.281 773.594 163.75 772.781 163.344C771.984 162.938 771.031 162.734 769.922 162.734ZM825.117 169.156L821.32 173.469V185H816.891V150.875H821.32V167.539L824.625 163.414L834.633 150.875H839.906L827.977 165.805L840.703 185H835.43L825.117 169.156ZM856.969 185.469C855.188 185.469 853.547 185.164 852.047 184.555C850.562 183.945 849.289 183.094 848.227 182C847.164 180.906 846.336 179.609 845.742 178.109C845.148 176.609 844.852 174.977 844.852 173.211V172.227C844.852 170.18 845.18 168.352 845.836 166.742C846.492 165.117 847.359 163.75 848.438 162.641C849.531 161.516 850.766 160.656 852.141 160.062C853.531 159.469 854.953 159.172 856.406 159.172C858.234 159.172 859.828 159.492 861.188 160.133C862.562 160.758 863.703 161.633 864.609 162.758C865.516 163.867 866.188 165.18 866.625 166.695C867.078 168.211 867.305 169.852 867.305 171.617V173.562H849.188C849.234 174.719 849.453 175.805 849.844 176.82C850.25 177.836 850.797 178.727 851.484 179.492C852.188 180.242 853.023 180.836 853.992 181.273C854.961 181.711 856.031 181.93 857.203 181.93C858.75 181.93 860.125 181.617 861.328 180.992C862.531 180.367 863.531 179.539 864.328 178.508L866.977 180.57C866.555 181.211 866.023 181.828 865.383 182.422C864.758 183 864.031 183.516 863.203 183.969C862.375 184.422 861.438 184.781 860.391 185.047C859.344 185.328 858.203 185.469 856.969 185.469ZM856.406 162.734C855.531 162.734 854.703 162.898 853.922 163.227C853.141 163.539 852.438 164.008 851.812 164.633C851.188 165.242 850.656 166 850.219 166.906C849.797 167.797 849.5 168.828 849.328 170H862.969V169.672C862.922 168.828 862.758 167.992 862.477 167.164C862.211 166.336 861.812 165.594 861.281 164.938C860.75 164.281 860.078 163.75 859.266 163.344C858.469 162.938 857.516 162.734 856.406 162.734ZM883.922 176L885.047 179.07L892.781 159.641H897.633L884.766 188.914C884.469 189.57 884.086 190.266 883.617 191C883.164 191.734 882.609 192.414 881.953 193.039C881.297 193.664 880.531 194.188 879.656 194.609C878.781 195.031 877.773 195.242 876.633 195.242C876.43 195.242 876.203 195.227 875.953 195.195C875.703 195.18 875.453 195.148 875.203 195.102C874.953 195.07 874.719 195.031 874.5 194.984C874.281 194.938 874.102 194.898 873.961 194.867L874.664 191.328C874.773 191.328 874.922 191.336 875.109 191.352C875.297 191.367 875.492 191.383 875.695 191.398C875.898 191.414 876.094 191.422 876.281 191.422C876.469 191.438 876.617 191.445 876.727 191.445C877.32 191.445 877.859 191.281 878.344 190.953C878.844 190.625 879.281 190.234 879.656 189.781C880.047 189.328 880.375 188.859 880.641 188.375C880.922 187.891 881.141 187.492 881.297 187.18L883.031 183.805L872.109 159.641H876.961L883.922 176ZM909.891 185V162.992H902.906V159.641H909.891V157.859C909.891 156.234 910.125 154.812 910.594 153.594C911.078 152.359 911.75 151.328 912.609 150.5C913.484 149.672 914.531 149.047 915.75 148.625C916.969 148.203 918.328 147.992 919.828 147.992C920.859 147.992 921.859 148.078 922.828 148.25C923.812 148.422 924.82 148.641 925.852 148.906L925.336 152.492C924.695 152.273 923.945 152.086 923.086 151.93C922.242 151.758 921.336 151.672 920.367 151.672C918.336 151.688 916.805 152.203 915.773 153.219C914.758 154.234 914.25 155.781 914.25 157.859V159.641H924.023V162.992H914.25V185H909.891ZM948.867 159.172C949.273 159.172 949.695 159.188 950.133 159.219C950.57 159.234 950.984 159.273 951.375 159.336C951.781 159.383 952.148 159.445 952.477 159.523C952.82 159.602 953.102 159.688 953.32 159.781L952.734 164.023C951.891 163.836 951.086 163.703 950.32 163.625C949.57 163.531 948.781 163.484 947.953 163.484C945.922 163.484 944.273 163.945 943.008 164.867C941.758 165.789 940.836 167.078 940.242 168.734V185H935.883V159.641H940.008L940.219 163.672C941.25 162.281 942.484 161.188 943.922 160.391C945.375 159.578 947.023 159.172 948.867 159.172ZM977.742 185C977.57 184.672 977.43 184.266 977.32 183.781C977.227 183.281 977.156 182.766 977.109 182.234C976.672 182.672 976.18 183.086 975.633 183.477C975.102 183.867 974.508 184.211 973.852 184.508C973.211 184.805 972.523 185.039 971.789 185.211C971.055 185.383 970.273 185.469 969.445 185.469C968.102 185.469 966.883 185.273 965.789 184.883C964.711 184.492 963.789 183.969 963.023 183.312C962.273 182.641 961.688 181.852 961.266 180.945C960.859 180.023 960.656 179.031 960.656 177.969C960.656 176.578 960.93 175.359 961.477 174.312C962.039 173.266 962.828 172.398 963.844 171.711C964.859 171.008 966.078 170.484 967.5 170.141C968.938 169.797 970.539 169.625 972.305 169.625H977.039V167.633C977.039 166.867 976.898 166.18 976.617 165.57C976.336 164.961 975.938 164.445 975.422 164.023C974.906 163.586 974.273 163.25 973.523 163.016C972.789 162.781 971.961 162.664 971.039 162.664C970.18 162.664 969.406 162.773 968.719 162.992C968.047 163.211 967.477 163.5 967.008 163.859C966.539 164.219 966.172 164.648 965.906 165.148C965.656 165.633 965.531 166.141 965.531 166.672H961.172C961.188 165.75 961.422 164.844 961.875 163.953C962.344 163.062 963.008 162.266 963.867 161.562C964.742 160.844 965.797 160.266 967.031 159.828C968.281 159.391 969.695 159.172 971.273 159.172C972.711 159.172 974.047 159.352 975.281 159.711C976.516 160.055 977.578 160.586 978.469 161.305C979.375 162.008 980.086 162.891 980.602 163.953C981.117 165.016 981.375 166.258 981.375 167.68V179.469C981.375 180.312 981.453 181.211 981.609 182.164C981.766 183.102 981.984 183.922 982.266 184.625V185H977.742ZM970.078 181.695C970.922 181.695 971.711 181.586 972.445 181.367C973.18 181.148 973.844 180.859 974.438 180.5C975.047 180.141 975.57 179.734 976.008 179.281C976.445 178.812 976.789 178.328 977.039 177.828V172.695H973.008C970.477 172.695 968.508 173.07 967.102 173.82C965.695 174.57 964.992 175.75 964.992 177.359C964.992 177.984 965.094 178.562 965.297 179.094C965.516 179.625 965.836 180.086 966.258 180.477C966.68 180.852 967.211 181.148 967.852 181.367C968.492 181.586 969.234 181.695 970.078 181.695ZM991.898 159.641L992.016 162.031C992.531 161.141 993.203 160.445 994.031 159.945C994.875 159.445 995.891 159.188 997.078 159.172C999.406 159.172 1000.96 160.078 1001.74 161.891C1002.24 161.078 1002.9 160.43 1003.71 159.945C1004.54 159.445 1005.54 159.188 1006.71 159.172C1008.57 159.172 1010 159.742 1011 160.883C1012 162.023 1012.5 163.75 1012.5 166.062V185H1008.38V166.016C1008.38 163.891 1007.4 162.836 1005.45 162.852C1004.93 162.852 1004.48 162.922 1004.11 163.062C1003.73 163.203 1003.42 163.398 1003.17 163.648C1002.92 163.883 1002.73 164.164 1002.59 164.492C1002.45 164.805 1002.35 165.133 1002.3 165.477V185H998.18V165.992C998.18 164.977 997.953 164.195 997.5 163.648C997.047 163.102 996.328 162.836 995.344 162.852C994.438 162.852 993.734 163.031 993.234 163.391C992.734 163.75 992.367 164.227 992.133 164.82V185H988.008V159.641H991.898ZM1029.94 185.469C1028.16 185.469 1026.52 185.164 1025.02 184.555C1023.53 183.945 1022.26 183.094 1021.2 182C1020.13 180.906 1019.3 179.609 1018.71 178.109C1018.12 176.609 1017.82 174.977 1017.82 173.211V172.227C1017.82 170.18 1018.15 168.352 1018.8 166.742C1019.46 165.117 1020.33 163.75 1021.41 162.641C1022.5 161.516 1023.73 160.656 1025.11 160.062C1026.5 159.469 1027.92 159.172 1029.38 159.172C1031.2 159.172 1032.8 159.492 1034.16 160.133C1035.53 160.758 1036.67 161.633 1037.58 162.758C1038.48 163.867 1039.16 165.18 1039.59 166.695C1040.05 168.211 1040.27 169.852 1040.27 171.617V173.562H1022.16C1022.2 174.719 1022.42 175.805 1022.81 176.82C1023.22 177.836 1023.77 178.727 1024.45 179.492C1025.16 180.242 1025.99 180.836 1026.96 181.273C1027.93 181.711 1029 181.93 1030.17 181.93C1031.72 181.93 1033.09 181.617 1034.3 180.992C1035.5 180.367 1036.5 179.539 1037.3 178.508L1039.95 180.57C1039.52 181.211 1038.99 181.828 1038.35 182.422C1037.73 183 1037 183.516 1036.17 183.969C1035.34 184.422 1034.41 184.781 1033.36 185.047C1032.31 185.328 1031.17 185.469 1029.94 185.469ZM1029.38 162.734C1028.5 162.734 1027.67 162.898 1026.89 163.227C1026.11 163.539 1025.41 164.008 1024.78 164.633C1024.16 165.242 1023.62 166 1023.19 166.906C1022.77 167.797 1022.47 168.828 1022.3 170H1035.94V169.672C1035.89 168.828 1035.73 167.992 1035.45 167.164C1035.18 166.336 1034.78 165.594 1034.25 164.938C1033.72 164.281 1033.05 163.75 1032.23 163.344C1031.44 162.938 1030.48 162.734 1029.38 162.734ZM1092.68 176.164H1081.29L1078.55 185H1074.21L1085.23 150.875H1088.86L1099.69 185H1095.38L1092.68 176.164ZM1082.46 172.391H1091.53L1087.03 157.578L1082.46 172.391ZM1121.84 159.172C1122.24 159.172 1122.66 159.188 1123.1 159.219C1123.54 159.234 1123.95 159.273 1124.34 159.336C1124.75 159.383 1125.12 159.445 1125.45 159.523C1125.79 159.602 1126.07 159.688 1126.29 159.781L1125.7 164.023C1124.86 163.836 1124.05 163.703 1123.29 163.625C1122.54 163.531 1121.75 163.484 1120.92 163.484C1118.89 163.484 1117.24 163.945 1115.98 164.867C1114.73 165.789 1113.8 167.078 1113.21 168.734V185H1108.85V159.641H1112.98L1113.19 163.672C1114.22 162.281 1115.45 161.188 1116.89 160.391C1118.34 159.578 1119.99 159.172 1121.84 159.172ZM1150.66 159.172C1151.07 159.172 1151.49 159.188 1151.93 159.219C1152.37 159.234 1152.78 159.273 1153.17 159.336C1153.58 159.383 1153.95 159.445 1154.27 159.523C1154.62 159.602 1154.9 159.688 1155.12 159.781L1154.53 164.023C1153.69 163.836 1152.88 163.703 1152.12 163.625C1151.37 163.531 1150.58 163.484 1149.75 163.484C1147.72 163.484 1146.07 163.945 1144.8 164.867C1143.55 165.789 1142.63 167.078 1142.04 168.734V185H1137.68V159.641H1141.8L1142.02 163.672C1143.05 162.281 1144.28 161.188 1145.72 160.391C1147.17 159.578 1148.82 159.172 1150.66 159.172ZM1179.54 185C1179.37 184.672 1179.23 184.266 1179.12 183.781C1179.02 183.281 1178.95 182.766 1178.91 182.234C1178.47 182.672 1177.98 183.086 1177.43 183.477C1176.9 183.867 1176.3 184.211 1175.65 184.508C1175.01 184.805 1174.32 185.039 1173.59 185.211C1172.85 185.383 1172.07 185.469 1171.24 185.469C1169.9 185.469 1168.68 185.273 1167.59 184.883C1166.51 184.492 1165.59 183.969 1164.82 183.312C1164.07 182.641 1163.48 181.852 1163.06 180.945C1162.66 180.023 1162.45 179.031 1162.45 177.969C1162.45 176.578 1162.73 175.359 1163.27 174.312C1163.84 173.266 1164.62 172.398 1165.64 171.711C1166.66 171.008 1167.88 170.484 1169.3 170.141C1170.73 169.797 1172.34 169.625 1174.1 169.625H1178.84V167.633C1178.84 166.867 1178.7 166.18 1178.41 165.57C1178.13 164.961 1177.73 164.445 1177.22 164.023C1176.7 163.586 1176.07 163.25 1175.32 163.016C1174.59 162.781 1173.76 162.664 1172.84 162.664C1171.98 162.664 1171.2 162.773 1170.52 162.992C1169.84 163.211 1169.27 163.5 1168.8 163.859C1168.34 164.219 1167.97 164.648 1167.7 165.148C1167.45 165.633 1167.33 166.141 1167.33 166.672H1162.97C1162.98 165.75 1163.22 164.844 1163.67 163.953C1164.14 163.062 1164.8 162.266 1165.66 161.562C1166.54 160.844 1167.59 160.266 1168.83 159.828C1170.08 159.391 1171.49 159.172 1173.07 159.172C1174.51 159.172 1175.84 159.352 1177.08 159.711C1178.31 160.055 1179.38 160.586 1180.27 161.305C1181.17 162.008 1181.88 162.891 1182.4 163.953C1182.91 165.016 1183.17 166.258 1183.17 167.68V179.469C1183.17 180.312 1183.25 181.211 1183.41 182.164C1183.56 183.102 1183.78 183.922 1184.06 184.625V185H1179.54ZM1171.88 181.695C1172.72 181.695 1173.51 181.586 1174.24 181.367C1174.98 181.148 1175.64 180.859 1176.23 180.5C1176.84 180.141 1177.37 179.734 1177.8 179.281C1178.24 178.812 1178.59 178.328 1178.84 177.828V172.695H1174.8C1172.27 172.695 1170.3 173.07 1168.9 173.82C1167.49 174.57 1166.79 175.75 1166.79 177.359C1166.79 177.984 1166.89 178.562 1167.09 179.094C1167.31 179.625 1167.63 180.086 1168.05 180.477C1168.48 180.852 1169.01 181.148 1169.65 181.367C1170.29 181.586 1171.03 181.695 1171.88 181.695ZM1201.03 176L1202.16 179.07L1209.89 159.641H1214.74L1201.88 188.914C1201.58 189.57 1201.2 190.266 1200.73 191C1200.27 191.734 1199.72 192.414 1199.06 193.039C1198.41 193.664 1197.64 194.188 1196.77 194.609C1195.89 195.031 1194.88 195.242 1193.74 195.242C1193.54 195.242 1193.31 195.227 1193.06 195.195C1192.81 195.18 1192.56 195.148 1192.31 195.102C1192.06 195.07 1191.83 195.031 1191.61 194.984C1191.39 194.938 1191.21 194.898 1191.07 194.867L1191.77 191.328C1191.88 191.328 1192.03 191.336 1192.22 191.352C1192.41 191.367 1192.6 191.383 1192.8 191.398C1193.01 191.414 1193.2 191.422 1193.39 191.422C1193.58 191.438 1193.73 191.445 1193.84 191.445C1194.43 191.445 1194.97 191.281 1195.45 190.953C1195.95 190.625 1196.39 190.234 1196.77 189.781C1197.16 189.328 1197.48 188.859 1197.75 188.375C1198.03 187.891 1198.25 187.492 1198.41 187.18L1200.14 183.805L1189.22 159.641H1194.07L1201.03 176Z" fill="white"/>
</svg>
