<svg width="650" height="494" viewBox="0 0 650 494" fill="none" xmlns="http://www.w3.org/2000/svg">
<path fill-rule="evenodd" clip-rule="evenodd" d="M342.757 40.7574C341.632 39.6321 340.106 39 338.515 39H297C293.686 39 291 41.6863 291 45V125C291 128.314 293.686 131 297 131H353C356.314 131 359 128.314 359 125V59.4853C359 57.894 358.368 56.3679 357.243 55.2426L342.757 40.7574Z" fill="#C774E8"/>
<g style="mix-blend-mode:multiply">
<path d="M359 57L341 39L341 51C341 54.3137 343.686 57 347 57L359 57Z" fill="#C774E8"/>
</g>
<rect x="141" y="235" width="90" height="60" fill="#D39763"/>
<g style="mix-blend-mode:multiply">
<rect x="141" y="235" width="8" height="60" fill="#D39763"/>
</g>
<g style="mix-blend-mode:multiply">
<rect x="223" y="235" width="8" height="60" fill="#D39763"/>
</g>
<g style="mix-blend-mode:multiply">
<rect x="166" y="246" width="23" height="23" fill="#D39763"/>
</g>
<g style="mix-blend-mode:multiply">
<circle cx="194.5" cy="272.5" r="12.5" fill="#D39763"/>
</g>
<rect x="280" y="235" width="90" height="60" fill="#D39763"/>
<g style="mix-blend-mode:multiply">
<rect x="280" y="235" width="8" height="60" fill="#D39763"/>
</g>
<g style="mix-blend-mode:multiply">
<rect x="362" y="235" width="8" height="60" fill="#D39763"/>
</g>
<g style="mix-blend-mode:multiply">
<rect x="305" y="246" width="23" height="23" fill="#D39763"/>
</g>
<g style="mix-blend-mode:multiply">
<circle cx="333.5" cy="272.5" r="12.5" fill="#D39763"/>
</g>
<rect x="419" y="235" width="90" height="60" fill="#D39763"/>
<g style="mix-blend-mode:multiply">
<rect x="419" y="235" width="8" height="60" fill="#D39763"/>
</g>
<g style="mix-blend-mode:multiply">
<rect x="501" y="235" width="8" height="60" fill="#D39763"/>
</g>
<g style="mix-blend-mode:multiply">
<rect x="444" y="246" width="23" height="23" fill="#D39763"/>
</g>
<g style="mix-blend-mode:multiply">
<circle cx="472.5" cy="272.5" r="12.5" fill="#D39763"/>
</g>
<path d="M273.254 145.273V154H274.243V147.369H274.328L277.055 154H278.01L280.737 147.369H280.822V154H281.811V145.273H280.55L277.584 152.517H277.481L274.515 145.273H273.254ZM284.441 156.438C285.349 156.438 285.992 155.956 286.367 154.955L289.154 147.472L288.055 147.455L286.248 152.67H286.18L284.373 147.455H283.282L285.703 154.034L285.515 154.545C285.157 155.526 284.697 155.619 283.964 155.432L283.708 156.318C283.811 156.369 284.1 156.438 284.441 156.438ZM290.621 154H291.678V150.812H293.587C295.62 150.812 296.536 149.577 296.536 148.034C296.536 146.491 295.62 145.273 293.57 145.273H290.621V154ZM291.678 149.875V146.21H293.536C294.955 146.21 295.496 146.986 295.496 148.034C295.496 149.082 294.955 149.875 293.553 149.875H291.678ZM298.102 154H299.108V149.858C299.108 148.972 299.807 148.324 300.761 148.324C301.03 148.324 301.307 148.375 301.375 148.392V147.369C301.26 147.361 300.996 147.352 300.846 147.352C300.062 147.352 299.381 147.795 299.142 148.443H299.074V147.455H298.102V154ZM305.027 154.136C306.8 154.136 307.993 152.79 307.993 150.761C307.993 148.716 306.8 147.369 305.027 147.369C303.254 147.369 302.061 148.716 302.061 150.761C302.061 152.79 303.254 154.136 305.027 154.136ZM305.027 153.233C303.68 153.233 303.067 152.074 303.067 150.761C303.067 149.449 303.68 148.273 305.027 148.273C306.373 148.273 306.987 149.449 306.987 150.761C306.987 152.074 306.373 153.233 305.027 153.233ZM309.528 147.455V154.477C309.528 155.142 309.255 155.517 308.642 155.517H308.454V156.455H308.659C309.92 156.455 310.534 155.688 310.534 154.477V147.455H309.528ZM310.022 146.364C310.414 146.364 310.738 146.057 310.738 145.682C310.738 145.307 310.414 145 310.022 145C309.63 145 309.306 145.307 309.306 145.682C309.306 146.057 309.63 146.364 310.022 146.364ZM315.12 154.136C316.449 154.136 317.421 153.472 317.728 152.483L316.756 152.21C316.501 152.892 315.908 153.233 315.12 153.233C313.939 153.233 313.126 152.47 313.079 151.068H317.83V150.642C317.83 148.205 316.381 147.369 315.018 147.369C313.245 147.369 312.069 148.767 312.069 150.778C312.069 152.79 313.228 154.136 315.12 154.136ZM313.079 150.199C313.147 149.18 313.867 148.273 315.018 148.273C316.108 148.273 316.807 149.091 316.807 150.199H313.079ZM322.019 154.136C323.468 154.136 324.422 153.25 324.593 152.091H323.587C323.4 152.807 322.803 153.233 322.019 153.233C320.826 153.233 320.059 152.244 320.059 150.727C320.059 149.244 320.843 148.273 322.019 148.273C322.905 148.273 323.434 148.818 323.587 149.415H324.593C324.422 148.188 323.383 147.369 322.002 147.369C320.229 147.369 319.053 148.767 319.053 150.761C319.053 152.722 320.178 154.136 322.019 154.136ZM328.91 147.455H327.512V145.886H326.506V147.455H325.518V148.307H326.506V152.398C326.506 153.54 327.427 154.085 328.279 154.085C328.654 154.085 328.893 154.017 329.029 153.966L328.824 153.062C328.739 153.08 328.603 153.114 328.381 153.114C327.938 153.114 327.512 152.977 327.512 152.125V148.307H328.91V147.455ZM334.939 154H329.485V154.938H334.939V154ZM338.127 154.119C340.053 154.119 341.161 152.487 341.161 149.636C341.161 146.807 340.036 145.153 338.127 145.153C336.218 145.153 335.093 146.807 335.093 149.636C335.093 152.487 336.201 154.119 338.127 154.119ZM338.127 153.182C336.857 153.182 336.116 151.908 336.116 149.636C336.116 147.369 336.866 146.074 338.127 146.074C339.388 146.074 340.138 147.369 340.138 149.636C340.138 151.908 339.397 153.182 338.127 153.182ZM345.627 154.119C347.553 154.119 348.661 152.487 348.661 149.636C348.661 146.807 347.536 145.153 345.627 145.153C343.718 145.153 342.593 146.807 342.593 149.636C342.593 152.487 343.701 154.119 345.627 154.119ZM345.627 153.182C344.357 153.182 343.616 151.908 343.616 149.636C343.616 147.369 344.366 146.074 345.627 146.074C346.888 146.074 347.638 147.369 347.638 149.636C347.638 151.908 346.897 153.182 345.627 153.182ZM353.349 145.273H352.292L350.11 146.722V147.795L352.241 146.381H352.292V154H353.349V145.273ZM356.093 154.068C356.515 154.068 356.86 153.723 356.86 153.301C356.86 152.879 356.515 152.534 356.093 152.534C355.671 152.534 355.326 152.879 355.326 153.301C355.326 153.723 355.671 154.068 356.093 154.068ZM360.591 154.153C361.733 154.153 362.329 153.54 362.534 153.114H362.585V154H363.591V149.688C363.591 147.608 362.006 147.369 361.17 147.369C360.182 147.369 359.057 147.71 358.545 148.903L359.5 149.244C359.721 148.767 360.246 148.256 361.204 148.256C362.129 148.256 362.585 148.746 362.585 149.585V149.619C362.585 150.105 362.091 150.062 360.898 150.216C359.683 150.374 358.358 150.642 358.358 152.142C358.358 153.42 359.346 154.153 360.591 154.153ZM360.744 153.25C359.943 153.25 359.363 152.892 359.363 152.193C359.363 151.426 360.062 151.188 360.846 151.085C361.273 151.034 362.415 150.915 362.585 150.71V151.631C362.585 152.449 361.937 153.25 360.744 153.25ZM368.171 154.136C369.5 154.136 370.472 153.472 370.779 152.483L369.807 152.21C369.551 152.892 368.959 153.233 368.171 153.233C366.99 153.233 366.176 152.47 366.129 151.068H370.881V150.642C370.881 148.205 369.432 147.369 368.068 147.369C366.296 147.369 365.119 148.767 365.119 150.778C365.119 152.79 366.279 154.136 368.171 154.136ZM366.129 150.199C366.198 149.18 366.918 148.273 368.068 148.273C369.159 148.273 369.858 149.091 369.858 150.199H366.129ZM372.411 156.455H373.416V152.994H373.502C373.723 153.352 374.149 154.136 375.411 154.136C377.047 154.136 378.189 152.824 378.189 150.744C378.189 148.682 377.047 147.369 375.394 147.369C374.115 147.369 373.723 148.153 373.502 148.494H373.382V147.455H372.411V156.455ZM373.399 150.727C373.399 149.261 374.047 148.273 375.274 148.273C376.553 148.273 377.183 149.347 377.183 150.727C377.183 152.125 376.536 153.233 375.274 153.233C374.064 153.233 373.399 152.21 373.399 150.727Z" fill="white"/>
<path d="M153.36 316H158.473V315.062H154.416V307.273H153.36V316ZM162.632 316.136C164.405 316.136 165.598 314.79 165.598 312.761C165.598 310.716 164.405 309.369 162.632 309.369C160.86 309.369 159.666 310.716 159.666 312.761C159.666 314.79 160.86 316.136 162.632 316.136ZM162.632 315.233C161.286 315.233 160.672 314.074 160.672 312.761C160.672 311.449 161.286 310.273 162.632 310.273C163.979 310.273 164.593 311.449 164.593 312.761C164.593 314.074 163.979 315.233 162.632 315.233ZM168.394 316H169.382L170.814 310.972H170.916L172.348 316H173.337L175.331 309.455H174.274L172.86 314.449H172.791L171.411 309.455H170.337L168.939 314.466H168.871L167.456 309.455H166.399L168.394 316ZM179.182 316.136C180.512 316.136 181.483 315.472 181.79 314.483L180.819 314.21C180.563 314.892 179.971 315.233 179.182 315.233C178.002 315.233 177.188 314.47 177.141 313.068H181.893V312.642C181.893 310.205 180.444 309.369 179.08 309.369C177.307 309.369 176.131 310.767 176.131 312.778C176.131 314.79 177.29 316.136 179.182 316.136ZM177.141 312.199C177.209 311.18 177.93 310.273 179.08 310.273C180.171 310.273 180.87 311.091 180.87 312.199H177.141ZM183.422 316H184.428V311.858C184.428 310.972 185.127 310.324 186.081 310.324C186.35 310.324 186.627 310.375 186.695 310.392V309.369C186.58 309.361 186.316 309.352 186.167 309.352C185.383 309.352 184.701 309.795 184.462 310.443H184.394V309.455H183.422V316ZM190.921 308.21H193.666V316H194.722V308.21H197.467V307.273H190.921V308.21ZM199.967 312.062C199.967 310.92 200.696 310.273 201.689 310.273C202.635 310.273 203.206 310.869 203.206 311.909V316H204.211V311.841C204.211 310.158 203.317 309.369 201.979 309.369C200.947 309.369 200.359 309.8 200.052 310.477H199.967V307.273H198.961V316H199.967V312.062ZM206.051 316H207.057V309.455H206.051V316ZM206.563 308.364C206.955 308.364 207.279 308.057 207.279 307.682C207.279 307.307 206.955 307 206.563 307C206.171 307 205.847 307.307 205.847 307.682C205.847 308.057 206.171 308.364 206.563 308.364ZM208.899 316H209.905V311.858C209.905 310.972 210.604 310.324 211.558 310.324C211.827 310.324 212.104 310.375 212.172 310.392V309.369C212.057 309.361 211.792 309.352 211.643 309.352C210.859 309.352 210.177 309.795 209.939 310.443H209.871V309.455H208.899V316ZM215.636 316.136C216.898 316.136 217.324 315.352 217.545 314.994H217.665V316H218.636V307.273H217.631V310.494H217.545C217.324 310.153 216.932 309.369 215.653 309.369C214 309.369 212.858 310.682 212.858 312.744C212.858 314.824 214 316.136 215.636 316.136ZM215.773 315.233C214.511 315.233 213.863 314.125 213.863 312.727C213.863 311.347 214.494 310.273 215.773 310.273C217 310.273 217.648 311.261 217.648 312.727C217.648 314.21 216.983 315.233 215.773 315.233Z" fill="white"/>
<path d="M312.365 316H317.479V315.062H313.422V307.273H312.365V316ZM321.638 316.136C323.411 316.136 324.604 314.79 324.604 312.761C324.604 310.716 323.411 309.369 321.638 309.369C319.865 309.369 318.672 310.716 318.672 312.761C318.672 314.79 319.865 316.136 321.638 316.136ZM321.638 315.233C320.292 315.233 319.678 314.074 319.678 312.761C319.678 311.449 320.292 310.273 321.638 310.273C322.985 310.273 323.598 311.449 323.598 312.761C323.598 314.074 322.985 315.233 321.638 315.233ZM328.781 318.591C330.349 318.591 331.611 317.875 331.611 316.188V309.455H330.639V310.494H330.537C330.315 310.153 329.906 309.369 328.628 309.369C326.974 309.369 325.832 310.682 325.832 312.693C325.832 314.739 327.026 315.898 328.611 315.898C329.889 315.898 330.298 315.148 330.52 314.79H330.605V316.119C330.605 317.21 329.838 317.705 328.781 317.705C327.592 317.705 327.175 317.078 326.906 316.716L326.105 317.278C326.514 317.964 327.32 318.591 328.781 318.591ZM328.747 314.994C327.486 314.994 326.838 314.04 326.838 312.676C326.838 311.347 327.469 310.273 328.747 310.273C329.974 310.273 330.622 311.261 330.622 312.676C330.622 314.125 329.957 314.994 328.747 314.994ZM336.111 316.136C337.884 316.136 339.077 314.79 339.077 312.761C339.077 310.716 337.884 309.369 336.111 309.369C334.338 309.369 333.145 310.716 333.145 312.761C333.145 314.79 334.338 316.136 336.111 316.136ZM336.111 315.233C334.764 315.233 334.151 314.074 334.151 312.761C334.151 311.449 334.764 310.273 336.111 310.273C337.457 310.273 338.071 311.449 338.071 312.761C338.071 314.074 337.457 315.233 336.111 315.233Z" fill="white"/>
<path d="M451.64 308.21H454.384V316H455.441V308.21H458.186V307.273H451.64V308.21ZM459.68 316H460.686V309.455H459.68V316ZM460.192 308.364C460.584 308.364 460.907 308.057 460.907 307.682C460.907 307.307 460.584 307 460.192 307C459.8 307 459.476 307.307 459.476 307.682C459.476 308.057 459.8 308.364 460.192 308.364ZM465.374 309.455H463.977V307.886H462.971V309.455H461.982V310.307H462.971V314.398C462.971 315.54 463.892 316.085 464.744 316.085C465.119 316.085 465.357 316.017 465.494 315.966L465.289 315.062C465.204 315.08 465.068 315.114 464.846 315.114C464.403 315.114 463.977 314.977 463.977 314.125V310.307H465.374V309.455ZM468.034 307.273H467.028V316H468.034V307.273ZM472.62 316.136C473.949 316.136 474.921 315.472 475.228 314.483L474.256 314.21C474.001 314.892 473.408 315.233 472.62 315.233C471.439 315.233 470.626 314.47 470.579 313.068H475.33V312.642C475.33 310.205 473.881 309.369 472.518 309.369C470.745 309.369 469.569 310.767 469.569 312.778C469.569 314.79 470.728 316.136 472.62 316.136ZM470.579 312.199C470.647 311.18 471.367 310.273 472.518 310.273C473.608 310.273 474.307 311.091 474.307 312.199H470.579Z" fill="white"/>
<path d="M177.372 443.273H176.332V450.142H176.247L171.474 443.273H170.451V452H171.508V445.148H171.593L176.349 452H177.372V443.273ZM181.276 452.153C182.418 452.153 183.015 451.54 183.219 451.114H183.271V452H184.276V447.688C184.276 445.608 182.691 445.369 181.856 445.369C180.867 445.369 179.742 445.71 179.231 446.903L180.185 447.244C180.407 446.767 180.931 446.256 181.89 446.256C182.815 446.256 183.271 446.746 183.271 447.585V447.619C183.271 448.105 182.776 448.062 181.583 448.216C180.369 448.374 179.043 448.642 179.043 450.142C179.043 451.42 180.032 452.153 181.276 452.153ZM181.43 451.25C180.629 451.25 180.049 450.892 180.049 450.193C180.049 449.426 180.748 449.188 181.532 449.085C181.958 449.034 183.1 448.915 183.271 448.71V449.631C183.271 450.449 182.623 451.25 181.43 451.25ZM186.112 452H187.118V447.909C187.118 446.95 187.816 446.273 188.6 446.273C189.363 446.273 189.896 446.771 189.896 447.517V452H190.919V447.739C190.919 446.895 191.447 446.273 192.368 446.273C193.083 446.273 193.697 446.652 193.697 447.619V452H194.703V447.619C194.703 446.081 193.876 445.369 192.708 445.369C191.771 445.369 191.085 445.8 190.748 446.477H190.68C190.356 445.778 189.785 445.369 188.924 445.369C188.072 445.369 187.441 445.778 187.169 446.477H187.083V445.455H186.112V452ZM199.286 452.136C200.615 452.136 201.587 451.472 201.894 450.483L200.922 450.21C200.667 450.892 200.074 451.233 199.286 451.233C198.105 451.233 197.292 450.47 197.245 449.068H201.996V448.642C201.996 446.205 200.547 445.369 199.184 445.369C197.411 445.369 196.235 446.767 196.235 448.778C196.235 450.79 197.394 452.136 199.286 452.136ZM197.245 448.199C197.313 447.18 198.033 446.273 199.184 446.273C200.275 446.273 200.973 447.091 200.973 448.199H197.245Z" fill="white"/>
<path d="M319.39 446C319.066 444.21 317.634 443.153 315.879 443.153C313.646 443.153 312.026 444.875 312.026 447.636C312.026 450.398 313.646 452.119 315.879 452.119C317.634 452.119 319.066 451.062 319.39 449.273H318.333C318.078 450.483 317.038 451.131 315.879 451.131C314.294 451.131 313.049 449.903 313.049 447.636C313.049 445.369 314.294 444.142 315.879 444.142C317.038 444.142 318.078 444.79 318.333 446H319.39ZM320.961 452H321.967V445.455H320.961V452ZM321.473 444.364C321.865 444.364 322.189 444.057 322.189 443.682C322.189 443.307 321.865 443 321.473 443C321.081 443 320.757 443.307 320.757 443.682C320.757 444.057 321.081 444.364 321.473 444.364ZM323.809 452H324.815V447.858C324.815 446.972 325.514 446.324 326.468 446.324C326.737 446.324 327.014 446.375 327.082 446.392V445.369C326.967 445.361 326.703 445.352 326.553 445.352C325.769 445.352 325.088 445.795 324.849 446.443H324.781V445.455H323.809V452ZM330.734 452.136C332.183 452.136 333.137 451.25 333.308 450.091H332.302C332.115 450.807 331.518 451.233 330.734 451.233C329.541 451.233 328.774 450.244 328.774 448.727C328.774 447.244 329.558 446.273 330.734 446.273C331.62 446.273 332.149 446.818 332.302 447.415H333.308C333.137 446.188 332.097 445.369 330.717 445.369C328.944 445.369 327.768 446.767 327.768 448.761C327.768 450.722 328.893 452.136 330.734 452.136ZM335.784 443.273H334.778V452H335.784V443.273ZM340.37 452.136C341.699 452.136 342.671 451.472 342.978 450.483L342.006 450.21C341.751 450.892 341.158 451.233 340.37 451.233C339.189 451.233 338.376 450.47 338.329 449.068H343.08V448.642C343.08 446.205 341.631 445.369 340.268 445.369C338.495 445.369 337.319 446.767 337.319 448.778C337.319 450.79 338.478 452.136 340.37 452.136ZM338.329 448.199C338.397 447.18 339.117 446.273 340.268 446.273C341.358 446.273 342.057 447.091 342.057 448.199H338.329Z" fill="white"/>
<path d="M447.16 446C446.836 444.21 445.404 443.153 443.648 443.153C441.415 443.153 439.796 444.875 439.796 447.636C439.796 450.398 441.415 452.119 443.648 452.119C445.404 452.119 446.836 451.062 447.16 449.273H446.103C445.847 450.483 444.807 451.131 443.648 451.131C442.063 451.131 440.819 449.903 440.819 447.636C440.819 445.369 442.063 444.142 443.648 444.142C444.807 444.142 445.847 444.79 446.103 446H447.16ZM451.39 452.136C453.163 452.136 454.356 450.79 454.356 448.761C454.356 446.716 453.163 445.369 451.39 445.369C449.617 445.369 448.424 446.716 448.424 448.761C448.424 450.79 449.617 452.136 451.39 452.136ZM451.39 451.233C450.044 451.233 449.43 450.074 449.43 448.761C449.43 447.449 450.044 446.273 451.39 446.273C452.737 446.273 453.35 447.449 453.35 448.761C453.35 450.074 452.737 451.233 451.39 451.233ZM456.897 448.062C456.897 446.92 457.604 446.273 458.567 446.273C459.501 446.273 460.067 446.882 460.067 447.909V452H461.073V447.841C461.073 446.17 460.182 445.369 458.857 445.369C457.868 445.369 457.255 445.812 456.948 446.477H456.863V445.455H455.891V452H456.897V448.062ZM465.757 445.455H464.36V443.886H463.354V445.455H462.365V446.307H463.354V450.398C463.354 451.54 464.274 452.085 465.127 452.085C465.502 452.085 465.74 452.017 465.877 451.966L465.672 451.062C465.587 451.08 465.45 451.114 465.229 451.114C464.786 451.114 464.36 450.977 464.36 450.125V446.307H465.757V445.455ZM467.27 452H468.276V447.858C468.276 446.972 468.975 446.324 469.929 446.324C470.198 446.324 470.475 446.375 470.543 446.392V445.369C470.428 445.361 470.164 445.352 470.014 445.352C469.23 445.352 468.548 445.795 468.31 446.443H468.242V445.455H467.27V452ZM474.195 452.136C475.968 452.136 477.161 450.79 477.161 448.761C477.161 446.716 475.968 445.369 474.195 445.369C472.422 445.369 471.229 446.716 471.229 448.761C471.229 450.79 472.422 452.136 474.195 452.136ZM474.195 451.233C472.848 451.233 472.235 450.074 472.235 448.761C472.235 447.449 472.848 446.273 474.195 446.273C475.541 446.273 476.155 447.449 476.155 448.761C476.155 450.074 475.541 451.233 474.195 451.233ZM479.702 443.273H478.696V452H479.702V443.273ZM482.549 443.273H481.544V452H482.549V443.273ZM487.135 452.136C488.465 452.136 489.437 451.472 489.743 450.483L488.772 450.21C488.516 450.892 487.924 451.233 487.135 451.233C485.955 451.233 485.141 450.47 485.094 449.068H489.846V448.642C489.846 446.205 488.397 445.369 487.033 445.369C485.26 445.369 484.084 446.767 484.084 448.778C484.084 450.79 485.243 452.136 487.135 452.136ZM485.094 448.199C485.162 447.18 485.883 446.273 487.033 446.273C488.124 446.273 488.823 447.091 488.823 448.199H485.094ZM491.376 452H492.381V447.858C492.381 446.972 493.08 446.324 494.035 446.324C494.303 446.324 494.58 446.375 494.648 446.392V445.369C494.533 445.361 494.269 445.352 494.12 445.352C493.336 445.352 492.654 445.795 492.415 446.443H492.347V445.455H491.376V452Z" fill="white"/>
<circle cx="327" cy="397" r="28" fill="#5DAEE6"/>
<path d="M163.125 372L162 388.425H164.025C168.45 377.625 170.1 374.475 176.325 374.475H181.2V417.3C181.2 421.5 179.25 421.725 174.075 422.4V424.65H197.025V422.4C191.925 421.725 189.975 421.5 189.975 417.3V374.475H194.775C201 374.475 202.65 377.625 207.15 388.425H209.1L207.975 372H163.125Z" fill="#E36A79"/>
<rect x="442.5" y="375.5" width="49" height="49" rx="4.5" stroke="#FFDA6E" stroke-width="3" stroke-linecap="round" stroke-linejoin="round"/>
<circle cx="442" cy="375" r="6" fill="#FFDA6E"/>
<circle cx="492" cy="375" r="6" fill="#FFDA6E"/>
<circle cx="492" cy="425" r="6" fill="#FFDA6E"/>
<circle cx="442" cy="425" r="6" fill="#FFDA6E"/>
<path d="M324.293 220.707C324.683 221.098 325.317 221.098 325.707 220.707L332.071 214.343C332.462 213.953 332.462 213.319 332.071 212.929C331.681 212.538 331.047 212.538 330.657 212.929L325 218.586L319.343 212.929C318.953 212.538 318.319 212.538 317.929 212.929C317.538 213.319 317.538 213.953 317.929 214.343L324.293 220.707ZM324 198L324 220L326 220L326 198L324 198Z" fill="#B4DC96"/>
<path d="M185.293 220.707C185.683 221.098 186.317 221.098 186.707 220.707L193.071 214.343C193.462 213.953 193.462 213.319 193.071 212.929C192.681 212.538 192.047 212.538 191.657 212.929L186 218.586L180.343 212.929C179.953 212.538 179.319 212.538 178.929 212.929C178.538 213.319 178.538 213.953 178.929 214.343L185.293 220.707ZM185 198L185 220L187 220L187 198L185 198Z" fill="#B4DC96"/>
<path d="M466.293 220.707C466.683 221.098 467.317 221.098 467.707 220.707L474.071 214.343C474.462 213.953 474.462 213.319 474.071 212.929C473.681 212.538 473.047 212.538 472.657 212.929L467 218.586L461.343 212.929C460.953 212.538 460.319 212.538 459.929 212.929C459.538 213.319 459.538 213.953 459.929 214.343L466.293 220.707ZM466 198L466 220L468 220L468 198L466 198Z" fill="#B4DC96"/>
<path d="M185.293 355.707C185.683 356.098 186.317 356.098 186.707 355.707L193.071 349.343C193.462 348.953 193.462 348.319 193.071 347.929C192.681 347.538 192.047 347.538 191.657 347.929L186 353.586L180.343 347.929C179.953 347.538 179.319 347.538 178.929 347.929C178.538 348.319 178.538 348.953 178.929 349.343L185.293 355.707ZM185 333L185 355L187 355L187 333L185 333Z" fill="#B4DC96"/>
<path d="M327.293 355.707C327.683 356.098 328.317 356.098 328.707 355.707L335.071 349.343C335.462 348.953 335.462 348.319 335.071 347.929C334.681 347.538 334.047 347.538 333.657 347.929L328 353.586L322.343 347.929C321.953 347.538 321.319 347.538 320.929 347.929C320.538 348.319 320.538 348.953 320.929 349.343L327.293 355.707ZM327 333L327 355L329 355L329 333L327 333Z" fill="#B4DC96"/>
<path d="M466.293 355.707C466.683 356.098 467.317 356.098 467.707 355.707L474.071 349.343C474.462 348.953 474.462 348.319 474.071 347.929C473.681 347.538 473.047 347.538 472.657 347.929L467 353.586L461.343 347.929C460.953 347.538 460.319 347.538 459.929 347.929C459.538 348.319 459.538 348.953 459.929 349.343L466.293 355.707ZM466 333L466 355L468 355L468 333L466 333Z" fill="#B4DC96"/>
<line x1="467" y1="198" x2="186" y2="198" stroke="#B4DC96" stroke-width="2" stroke-linecap="round"/>
<line x1="325" y1="198" x2="325" y2="165" stroke="#B4DC96" stroke-width="2"/>
<g style="mix-blend-mode:multiply">
<path d="M311.462 95L312.973 90.3565H320.321L321.833 95H326.446L319.427 74.6364H313.878L306.848 95H311.462ZM314.067 86.9957L316.573 79.2898H316.732L319.238 86.9957H314.067ZM335.067 95.2983C338.846 95.2983 341.391 93.4588 341.988 90.625L338.07 90.3665C337.643 91.5298 336.549 92.1364 335.137 92.1364C333.019 92.1364 331.677 90.7344 331.677 88.4574V88.4474H342.077V87.2841C342.077 82.0937 338.935 79.5284 334.898 79.5284C330.404 79.5284 327.491 82.7202 327.491 87.4332C327.491 92.2756 330.364 95.2983 335.067 95.2983ZM331.677 85.8224C331.766 84.0824 333.089 82.6903 334.968 82.6903C336.807 82.6903 338.08 84.0028 338.09 85.8224H331.677Z" fill="#C774E8"/>
</g>
</svg>
